<?xml version="1.0" encoding="UTF-8"?>
<svg id="Layer_1" data-name="Layer 1" xmlns="http://www.w3.org/2000/svg" viewBox="0 0 800 800">
  <defs>
    <style>
      .cls-1 {
        fill: #f6f0e2;
      }

      .cls-2 {
        fill: #fff;
      }

      .cls-3 {
        fill: #ee001e;
      }

      .cls-4 {
        fill: #fff83c;
      }
    </style>
  </defs>
  <rect class="cls-3" width="800" height="800"/>
  <g>
    <g>
      <path class="cls-1" d="M550.35,173.43c-1.4-.76-2.47-1.94-3.23-3.55h-.1v3.85h-7.45v-36.7h7.74v8.04c0,1.12-.03,2.21-.07,3.28-.05,1.07-.11,2-.17,2.79h.15c.89-1.35,1.96-2.42,3.21-3.21,1.25-.79,2.79-1.18,4.64-1.18,1.71,0,3.26.35,4.64,1.04,1.38.69,2.57,1.65,3.55,2.89.99,1.23,1.75,2.7,2.29,4.39.54,1.69.81,3.54.81,5.55,0,2.17-.26,4.12-.79,5.85-.53,1.73-1.28,3.19-2.27,4.39-.99,1.2-2.17,2.12-3.55,2.76-1.38.64-2.93.96-4.64.96s-3.36-.38-4.76-1.13ZM557.11,166.23c.9-1.41,1.36-3.3,1.36-5.67s-.45-4.28-1.36-5.75c-.9-1.46-2.28-2.2-4.12-2.2-1.02,0-1.9.21-2.64.62-.74.41-1.36.97-1.85,1.68-.49.71-.86,1.55-1.09,2.54-.23.99-.35,2.04-.35,3.16,0,2.3.53,4.17,1.58,5.6s2.52,2.15,4.39,2.15,3.16-.71,4.07-2.12Z"/>
      <path class="cls-1" d="M585.99,169.98h-.15c-.95,1.55-2.06,2.68-3.3,3.4-1.25.72-2.78,1.09-4.59,1.09-2.99,0-5.28-.88-6.86-2.64-1.58-1.76-2.37-4.09-2.37-6.98v-17.36h7.74v15.88c0,1.48.35,2.61,1.06,3.4.71.79,1.75,1.18,3.13,1.18,1.58,0,2.81-.53,3.7-1.58.89-1.05,1.33-2.4,1.33-4.05v-14.85h7.65v26.24h-7.35v-3.75Z"/>
      <path class="cls-1" d="M602.96,173.93c-1.51-.43-2.8-1.04-3.87-1.83-1.07-.79-1.91-1.73-2.52-2.84-.61-1.1-.96-2.31-1.06-3.63h7.3c.23,1.25.8,2.2,1.7,2.86.9.66,2.11.99,3.63.99,1.38,0,2.45-.26,3.21-.79.76-.53,1.13-1.27,1.13-2.22,0-.59-.18-1.07-.54-1.43-.36-.36-.86-.66-1.48-.89s-1.34-.42-2.15-.57c-.81-.15-1.67-.3-2.59-.47-1.18-.23-2.34-.49-3.45-.79-1.12-.3-2.12-.74-3.01-1.33-.89-.59-1.6-1.36-2.15-2.32-.54-.95-.81-2.2-.81-3.75,0-1.35.29-2.53.86-3.55.58-1.02,1.36-1.87,2.34-2.57.99-.69,2.15-1.21,3.5-1.55,1.35-.35,2.8-.52,4.34-.52,3.65,0,6.41.71,8.29,2.15s2.99,3.3,3.35,5.6h-7.2c-.49-1.87-1.97-2.81-4.44-2.81-1.18,0-2.13.23-2.84.69-.71.46-1.06,1.12-1.06,1.97,0,.49.16.9.49,1.21.33.31.79.57,1.38.76.59.2,1.28.36,2.07.49.79.13,1.63.28,2.52.44,1.18.2,2.37.45,3.55.76,1.18.31,2.25.78,3.21,1.41.95.63,1.73,1.46,2.34,2.49.61,1.04.91,2.38.91,4.02,0,1.41-.3,2.66-.89,3.75-.59,1.08-1.41,1.99-2.47,2.71-1.05.72-2.3,1.27-3.75,1.63-1.45.36-3.03.54-4.74.54-1.91,0-3.62-.21-5.13-.64Z"/>
      <path class="cls-1" d="M630.29,137.03v6.76h-7.84v-6.76h7.84ZM630.24,147.49v26.24h-7.74v-26.24h7.74Z"/>
      <path class="cls-1" d="M641.73,151.48c.82-1.58,1.92-2.76,3.28-3.55,1.36-.79,2.97-1.18,4.81-1.18,2.89,0,5.14.88,6.73,2.64,1.6,1.76,2.39,4.12,2.39,7.08v17.26h-7.69v-15.78c0-1.45-.37-2.61-1.11-3.48s-1.83-1.31-3.28-1.31-2.73.54-3.65,1.63-1.38,2.47-1.38,4.14v14.8h-7.74v-26.24h7.5v3.99h.15Z"/>
      <path class="cls-1" d="M669.45,173.46c-1.71-.71-3.17-1.68-4.37-2.93-1.2-1.25-2.12-2.71-2.76-4.39-.64-1.68-.96-3.5-.96-5.47s.33-3.81.99-5.5c.66-1.69,1.58-3.16,2.76-4.41,1.18-1.25,2.6-2.23,4.24-2.93,1.64-.71,3.47-1.06,5.48-1.06,1.87,0,3.56.3,5.05.89,1.5.59,2.82,1.41,3.97,2.47,1.48,1.45,2.57,3.24,3.26,5.38s1.02,4.51.99,7.1h-19.14c.26,1.97.92,3.52,1.97,4.64,1.05,1.12,2.52,1.68,4.39,1.68,1.22,0,2.21-.22,2.98-.67s1.37-1.08,1.8-1.9h7.5c-.33,1.15-.85,2.23-1.55,3.23-.71,1-1.58,1.87-2.61,2.61s-2.25,1.32-3.63,1.73c-1.38.41-2.91.62-4.59.62-2.14,0-4.06-.35-5.77-1.06ZM670.78,153.8c-.92,1.05-1.51,2.48-1.78,4.29h11.2c-.13-1.84-.67-3.28-1.63-4.32s-2.2-1.55-3.75-1.55c-1.78,0-3.13.53-4.05,1.58Z"/>
      <path class="cls-1" d="M696.48,173.93c-1.51-.43-2.8-1.04-3.87-1.83-1.07-.79-1.91-1.73-2.52-2.84-.61-1.1-.96-2.31-1.06-3.63h7.3c.23,1.25.8,2.2,1.7,2.86.9.66,2.11.99,3.63.99,1.38,0,2.45-.26,3.21-.79.76-.53,1.13-1.27,1.13-2.22,0-.59-.18-1.07-.54-1.43-.36-.36-.86-.66-1.48-.89-.63-.23-1.34-.42-2.15-.57-.81-.15-1.67-.3-2.59-.47-1.18-.23-2.34-.49-3.45-.79-1.12-.3-2.12-.74-3.01-1.33-.89-.59-1.6-1.36-2.15-2.32-.54-.95-.81-2.2-.81-3.75,0-1.35.29-2.53.86-3.55.58-1.02,1.36-1.87,2.34-2.57.99-.69,2.15-1.21,3.5-1.55,1.35-.35,2.8-.52,4.34-.52,3.65,0,6.41.71,8.29,2.15,1.87,1.43,2.99,3.3,3.35,5.6h-7.2c-.49-1.87-1.97-2.81-4.44-2.81-1.18,0-2.13.23-2.84.69s-1.06,1.12-1.06,1.97c0,.49.16.9.49,1.21.33.31.79.57,1.38.76.59.2,1.28.36,2.07.49.79.13,1.63.28,2.51.44,1.18.2,2.37.45,3.55.76,1.18.31,2.25.78,3.21,1.41.95.63,1.73,1.46,2.34,2.49.61,1.04.91,2.38.91,4.02,0,1.41-.3,2.66-.89,3.75-.59,1.08-1.41,1.99-2.47,2.71-1.05.72-2.3,1.27-3.75,1.63-1.45.36-3.03.54-4.74.54-1.91,0-3.62-.21-5.13-.64Z"/>
      <path class="cls-1" d="M722.03,173.93c-1.51-.43-2.8-1.04-3.87-1.83-1.07-.79-1.91-1.73-2.52-2.84-.61-1.1-.96-2.31-1.06-3.63h7.3c.23,1.25.8,2.2,1.7,2.86.9.66,2.11.99,3.63.99,1.38,0,2.45-.26,3.21-.79.76-.53,1.13-1.27,1.13-2.22,0-.59-.18-1.07-.54-1.43-.36-.36-.86-.66-1.48-.89s-1.34-.42-2.15-.57c-.81-.15-1.67-.3-2.59-.47-1.18-.23-2.34-.49-3.45-.79-1.12-.3-2.12-.74-3.01-1.33-.89-.59-1.6-1.36-2.15-2.32-.54-.95-.81-2.2-.81-3.75,0-1.35.29-2.53.86-3.55.58-1.02,1.36-1.87,2.34-2.57.99-.69,2.15-1.21,3.5-1.55,1.35-.35,2.8-.52,4.34-.52,3.65,0,6.41.71,8.29,2.15s2.99,3.3,3.35,5.6h-7.2c-.49-1.87-1.97-2.81-4.44-2.81-1.18,0-2.13.23-2.84.69-.71.46-1.06,1.12-1.06,1.97,0,.49.16.9.49,1.21.33.31.79.57,1.38.76.59.2,1.28.36,2.07.49.79.13,1.63.28,2.52.44,1.18.2,2.37.45,3.55.76,1.18.31,2.25.78,3.21,1.41.95.63,1.73,1.46,2.34,2.49.61,1.04.91,2.38.91,4.02,0,1.41-.3,2.66-.89,3.75-.59,1.08-1.41,1.99-2.47,2.71-1.05.72-2.3,1.27-3.75,1.63-1.45.36-3.03.54-4.74.54-1.91,0-3.62-.21-5.13-.64Z"/>
    </g>
    <path class="cls-1" d="M690.36,129.98h14.83v-27.09c0-6.18,3.61-10.55,8.94-10.55s7.8,3.61,7.8,8.75v28.9h14.83v-31.75c0-10.74-6.46-18.35-16.92-18.35-6.65,0-11.31,2.85-14.83,8.08h-.29v-6.65h-14.35v48.67ZM661.26,79.97c-15.5,0-25.86,11.12-25.86,25.76s10.36,25.76,25.86,25.76,25.86-11.22,25.86-25.76-10.36-25.76-25.86-25.76ZM661.17,120.57c-7.04,0-10.74-5.89-10.74-14.83s3.71-14.83,10.74-14.83,10.93,5.8,10.93,14.83-3.9,14.83-10.93,14.83ZM593.2,129.98h41.64v-11.69h-23.58v-.29l22.53-25.29v-11.41h-40.59v11.69h22.82v.29l-22.82,25.48v11.22ZM574.18,129.98h14.93v-48.67h-14.93v48.67ZM539.58,129.98h14.83v-22.34c0-10.17,6.08-14.64,15.4-13.41h.29v-12.83c-.76-.29-1.62-.38-3.04-.38-5.8,0-9.7,2.66-13.03,8.37h-.29v-8.08h-14.16v48.67ZM512.29,120.66c-6.56,0-10.55-4.28-11.31-10.84h35.08c.1-10.46-2.66-18.82-8.46-24.05-4.09-3.8-9.51-5.89-16.35-5.89-14.64,0-24.81,11.12-24.81,25.67s9.7,25.86,25.76,25.86c6.08,0,10.93-1.62,14.93-4.37,4.28-2.95,7.32-7.22,8.18-11.5h-14.26c-1.43,3.23-4.37,5.13-8.75,5.13ZM511.53,90.52c5.23,0,8.84,3.9,9.41,9.6h-19.87c1.14-5.8,4.28-9.6,10.46-9.6ZM574.18,64h14.93v13.21h-14.93v-13.21ZM469.95,129.98c.39,0,.74-.24.88-.61l18.45-48.07h-14.97s-11.85,30.87-11.85,30.87l-11.85-30.87h-14.97l18.45,48.07c.14.37.49.61.88.61h14.97Z"/>
  </g>
  <g>
    <path class="cls-4" d="M75.15,266.51c-2.03-.87-3.8-2.1-5.3-3.7-1.57-1.7-2.76-3.7-3.58-6-.82-2.3-1.23-4.82-1.23-7.55s.46-5.44,1.38-7.83c.92-2.38,2.23-4.42,3.93-6.12,1.5-1.5,3.27-2.67,5.3-3.5,2.03-.83,4.35-1.25,6.95-1.25,2.3,0,4.37.29,6.2.88,1.83.58,3.42,1.42,4.75,2.5,1.33,1.08,2.41,2.39,3.23,3.93.82,1.53,1.38,3.23,1.68,5.1h-8.6c-.33-1.47-1.08-2.68-2.25-3.65-1.17-.97-2.73-1.45-4.7-1.45-1.47,0-2.76.29-3.88.88-1.12.58-2.04,1.38-2.77,2.4-.73,1.02-1.28,2.22-1.65,3.6-.37,1.38-.55,2.89-.55,4.52s.21,3.15.62,4.55c.42,1.4,1.01,2.61,1.78,3.62.77,1.02,1.71,1.81,2.82,2.38,1.12.57,2.38.85,3.77.85,1.17,0,2.21-.17,3.12-.52.92-.35,1.7-.82,2.35-1.4.65-.58,1.17-1.25,1.55-2,.38-.75.62-1.52.72-2.33v-.1h-6.7v-6.5h14.9v19.2h-6.2l-.5-4.3h-.1c-1.17,1.83-2.61,3.14-4.33,3.92-1.72.78-3.66,1.17-5.83,1.17-2.57,0-4.87-.43-6.9-1.3Z"/>
    <path class="cls-4" d="M109.6,266.74c-1.7-.68-3.13-1.63-4.3-2.85-1.17-1.22-2.07-2.66-2.7-4.33-.63-1.67-.95-3.47-.95-5.4s.32-3.67.95-5.32c.63-1.65,1.53-3.08,2.7-4.3,1.17-1.22,2.55-2.17,4.15-2.85,1.6-.68,3.38-1.02,5.35-1.02,1.83,0,3.47.28,4.92.85,1.45.57,2.73,1.35,3.83,2.35,1.53,1.4,2.67,3.17,3.42,5.32.75,2.15,1.11,4.53,1.08,7.12h-18.4c.27,1.73.87,3.1,1.8,4.1.93,1,2.25,1.5,3.95,1.5,1.07,0,1.95-.23,2.65-.67.7-.45,1.23-1.08,1.6-1.88h7.95c-.27,1.17-.77,2.27-1.5,3.32-.73,1.05-1.67,1.96-2.8,2.73-1.07.77-2.26,1.35-3.58,1.75-1.32.4-2.79.6-4.42.6-2.1,0-4-.34-5.7-1.02ZM118.25,247.81c-.87-.9-1.97-1.35-3.3-1.35-1.57,0-2.77.45-3.6,1.35-.83.9-1.38,2.12-1.65,3.65h10.1c-.17-1.53-.68-2.75-1.55-3.65Z"/>
    <path class="cls-4" d="M137.18,266.99c-.98-.22-1.84-.59-2.58-1.12-.73-.53-1.3-1.26-1.7-2.18-.4-.92-.6-2.06-.6-3.42v-13.75h-3.4v-5.1h3.4v-8.1h7.95v8.1h4.65v5.1h-4.65v12c0,1,.26,1.67.77,2,.52.33,1.21.5,2.08.5.37,0,.72,0,1.05-.02.33-.02.58-.02.75-.02v5.95c-.37.1-.92.19-1.67.27-.75.08-1.67.12-2.77.12-1.2,0-2.29-.11-3.27-.32Z"/>
    <path class="cls-4" d="M157.55,265.39c-2.2-1.62-3.37-3.84-3.5-6.67h7.7c.17,1.27.65,2.22,1.45,2.85.8.63,1.88.95,3.25.95,1.23,0,2.21-.22,2.93-.65.72-.43,1.07-1.07,1.07-1.9,0-.57-.18-1.03-.55-1.38-.37-.35-.85-.63-1.45-.85-.6-.22-1.29-.38-2.07-.5-.78-.12-1.59-.26-2.43-.43-1.1-.2-2.2-.44-3.3-.72s-2.09-.71-2.98-1.28c-.88-.57-1.59-1.32-2.12-2.27-.53-.95-.8-2.17-.8-3.67,0-1.33.29-2.52.88-3.55.58-1.03,1.38-1.89,2.38-2.57,1-.68,2.17-1.2,3.52-1.55,1.35-.35,2.77-.52,4.27-.52,3.63,0,6.42.73,8.35,2.2,1.93,1.47,3,3.47,3.2,6h-7.5c-.17-1.17-.61-1.96-1.33-2.38-.72-.42-1.64-.62-2.77-.62-1,0-1.84.19-2.52.57-.68.38-1.03.98-1.03,1.78,0,.47.17.83.5,1.1.33.27.78.49,1.35.68.57.18,1.23.34,1.98.48.75.13,1.52.27,2.33.4,1.13.2,2.27.44,3.42.73s2.2.72,3.15,1.32c.95.6,1.73,1.41,2.33,2.43.6,1.02.9,2.34.9,3.97,0,1.4-.29,2.63-.88,3.7-.58,1.07-1.39,1.95-2.42,2.65-1.03.7-2.27,1.23-3.7,1.6-1.43.37-2.98.55-4.65.55-3.77,0-6.75-.81-8.95-2.42Z"/>
    <path class="cls-4" d="M186.93,266.99c-.98-.22-1.84-.59-2.58-1.12-.73-.53-1.3-1.26-1.7-2.18-.4-.92-.6-2.06-.6-3.42v-13.75h-3.4v-5.1h3.4v-8.1h7.95v8.1h4.65v5.1h-4.65v12c0,1,.26,1.67.77,2,.52.33,1.21.5,2.08.5.37,0,.72,0,1.05-.02.33-.02.58-.02.75-.02v5.95c-.37.1-.92.19-1.67.27-.75.08-1.67.12-2.77.12-1.2,0-2.29-.11-3.27-.32Z"/>
    <path class="cls-4" d="M202.12,267.16c-1.08-.33-2.01-.83-2.77-1.5-.77-.67-1.37-1.48-1.8-2.45-.43-.97-.65-2.08-.65-3.35,0-1.4.26-2.58.77-3.52.52-.95,1.23-1.73,2.12-2.35.9-.62,1.94-1.09,3.12-1.43,1.18-.33,2.44-.58,3.77-.75,2.4-.3,4.08-.63,5.05-1,.97-.37,1.45-.98,1.45-1.85s-.27-1.5-.82-2c-.55-.5-1.44-.75-2.68-.75-1.3,0-2.28.28-2.95.85-.67.57-1.07,1.38-1.2,2.45h-7.5c.03-1.2.3-2.33.8-3.4.5-1.07,1.22-2,2.17-2.8.95-.8,2.14-1.43,3.58-1.9,1.43-.47,3.12-.7,5.05-.7s3.57.17,4.9.52c1.33.35,2.47.88,3.4,1.57,1.1.8,1.92,1.82,2.45,3.05.53,1.23.8,2.65.8,4.25v12.9c0,1.03.06,1.84.18,2.42.12.58.36.99.73,1.23v.35h-7.9c-.2-.27-.37-.64-.5-1.12-.13-.48-.25-1.06-.35-1.73h-.1c-.77,1.07-1.74,1.92-2.93,2.55-1.18.63-2.74.95-4.67.95-1.27,0-2.44-.17-3.52-.5ZM211.97,261.21c.95-.83,1.42-1.95,1.42-3.35v-3.05c-.53.27-1.16.51-1.88.73-.72.22-1.49.43-2.33.62-1.57.37-2.7.79-3.4,1.27-.7.48-1.05,1.21-1.05,2.18,0,1.03.33,1.77,1,2.2.67.43,1.5.65,2.5.65,1.53,0,2.77-.42,3.73-1.25Z"/>
    <path class="cls-4" d="M232.95,241.41v4h.15c.9-1.53,1.9-2.65,3-3.35,1.1-.7,2.43-1.05,4-1.05.77,0,1.3.07,1.6.2v7h-.2c-2.5-.37-4.49.06-5.97,1.27-1.48,1.22-2.23,3.23-2.23,6.02v11.5h-8.15v-25.6h7.8Z"/>
    <path class="cls-4" d="M251.67,266.99c-.98-.22-1.84-.59-2.58-1.12-.73-.53-1.3-1.26-1.7-2.18-.4-.92-.6-2.06-.6-3.42v-13.75h-3.4v-5.1h3.4v-8.1h7.95v8.1h4.65v5.1h-4.65v12c0,1,.26,1.67.77,2,.52.33,1.21.5,2.08.5.37,0,.72,0,1.05-.02.33-.02.58-.02.75-.02v5.95c-.37.1-.92.19-1.67.27-.75.08-1.67.12-2.77.12-1.2,0-2.29-.11-3.27-.32Z"/>
    <path class="cls-4" d="M268.9,266.74c-1.7-.68-3.13-1.63-4.3-2.85-1.17-1.22-2.07-2.66-2.7-4.33-.63-1.67-.95-3.47-.95-5.4s.32-3.67.95-5.32c.63-1.65,1.53-3.08,2.7-4.3,1.17-1.22,2.55-2.17,4.15-2.85,1.6-.68,3.38-1.02,5.35-1.02,1.83,0,3.47.28,4.92.85,1.45.57,2.73,1.35,3.83,2.35,1.53,1.4,2.67,3.17,3.42,5.32.75,2.15,1.11,4.53,1.08,7.12h-18.4c.27,1.73.87,3.1,1.8,4.1.93,1,2.25,1.5,3.95,1.5,1.07,0,1.95-.23,2.65-.67.7-.45,1.23-1.08,1.6-1.88h7.95c-.27,1.17-.77,2.27-1.5,3.32-.73,1.05-1.67,1.96-2.8,2.73-1.07.77-2.26,1.35-3.58,1.75-1.32.4-2.79.6-4.42.6-2.1,0-4-.34-5.7-1.02ZM277.55,247.81c-.87-.9-1.97-1.35-3.3-1.35-1.57,0-2.77.45-3.6,1.35-.83.9-1.38,2.12-1.65,3.65h10.1c-.17-1.53-.68-2.75-1.55-3.65Z"/>
    <path class="cls-4" d="M295.65,266.89c-1.37-.62-2.55-1.51-3.55-2.67-1-1.17-1.78-2.59-2.33-4.28-.55-1.68-.83-3.59-.83-5.72,0-2,.28-3.83.83-5.5.55-1.67,1.32-3.09,2.3-4.28.98-1.18,2.16-2.11,3.53-2.77,1.37-.67,2.88-1,4.55-1,1.8,0,3.25.34,4.35,1.02,1.1.68,2.03,1.56,2.8,2.62h.15v-13.05h8.15v35.75h-7.8v-3.45h-.1c-.77,1.33-1.79,2.38-3.07,3.12-1.28.75-2.77,1.12-4.48,1.12s-3.13-.31-4.5-.92ZM306.22,259.36c.95-1.33,1.42-3.05,1.42-5.15,0-1.07-.11-2.06-.33-2.98-.22-.92-.55-1.7-1-2.35-.45-.65-1-1.16-1.65-1.52-.65-.37-1.42-.55-2.32-.55-1.63,0-2.9.68-3.8,2.03-.9,1.35-1.35,3.11-1.35,5.27s.44,4,1.33,5.3c.88,1.3,2.12,1.95,3.73,1.95,1.7,0,3.02-.67,3.98-2Z"/>
    <path class="cls-2" d="M69.88,303.96v26.46h-3.33v-26.46h3.33Z"/>
    <path class="cls-2" d="M76.02,311.28v-6.03h3v6.03h3.7v2.44h-3.7v12.43c0,.67.17,1.13.5,1.39.33.26.81.39,1.42.39.3,0,.59-.03.89-.09s.53-.12.7-.17h.11v2.59c-.35.07-.72.14-1.13.19-.41.05-.83.07-1.28.07-1.23,0-2.25-.28-3.03-.83-.79-.55-1.18-1.51-1.18-2.87v-13.1h-2.77v-2.44h2.77Z"/>
    <path class="cls-2" d="M87.59,310.6c-.6.63-1.34,1.01-2.2,1.13v-1.41c.42-.17.76-.46,1.02-.87.26-.41.39-1,.39-1.79h-1.44v-3.7h3.15v3.7c0,1.33-.3,2.31-.91,2.94Z"/>
    <path class="cls-2" d="M91.19,329.21c-1.43-1.17-2.22-2.84-2.37-5.01h3.07c.1.84.31,1.53.63,2.07.32.54.72.97,1.2,1.29.48.32,1.03.55,1.65.68.62.14,1.28.2,2,.2,1.58,0,2.71-.3,3.4-.91.69-.6,1.04-1.35,1.04-2.24,0-.54-.09-.99-.28-1.35-.19-.36-.48-.66-.89-.91-.41-.25-.93-.46-1.55-.63-.63-.17-1.39-.36-2.28-.55-.94-.2-1.84-.41-2.7-.63-.86-.22-1.62-.54-2.28-.94-.65-.41-1.18-.94-1.57-1.61s-.59-1.52-.59-2.55c0-1.6.59-2.88,1.76-3.83,1.17-.95,2.88-1.42,5.12-1.42,2.39,0,4.19.53,5.38,1.59,1.2,1.06,1.91,2.53,2.13,4.4h-3.07c-.15-1.26-.58-2.18-1.29-2.76-.72-.58-1.79-.87-3.22-.87s-2.37.27-2.96.8c-.59.53-.89,1.18-.89,1.94,0,.52.11.94.33,1.28s.56.61,1,.83c.44.22.99.41,1.63.55.64.15,1.37.31,2.18.48.96.2,1.87.41,2.72.65.85.23,1.6.57,2.26,1,.65.43,1.17.99,1.54,1.68.37.69.56,1.59.56,2.7,0,.96-.19,1.81-.56,2.53-.37.73-.89,1.33-1.55,1.81-.67.48-1.46.85-2.39,1.09-.92.25-1.94.37-3.05.37-2.64,0-4.67-.59-6.1-1.76Z"/>
    <path class="cls-2" d="M125.35,327.75h-.04c-.3.37-.64.73-1.04,1.09-.4.36-.85.68-1.37.98-.52.3-1.1.53-1.76.7-.65.17-1.39.26-2.2.26-.91,0-1.76-.11-2.55-.31-.79-.21-1.47-.54-2.05-.98-.58-.44-1.04-1-1.37-1.67s-.5-1.46-.5-2.37c0-1.13.21-2.06.63-2.77.42-.72,1-1.29,1.74-1.74.74-.44,1.62-.78,2.65-1.02,1.02-.23,2.13-.45,3.31-.65.67-.1,1.28-.2,1.85-.31.57-.11,1.05-.26,1.46-.44.41-.19.72-.43.94-.74.22-.31.33-.72.33-1.24,0-1.08-.37-1.92-1.11-2.5-.74-.58-1.8-.87-3.18-.87-1.55,0-2.73.34-3.51,1.02-.79.68-1.21,1.75-1.26,3.2h-2.89c.02-.91.2-1.77.52-2.57.32-.8.8-1.49,1.42-2.05.63-.57,1.42-1.02,2.37-1.35.95-.33,2.05-.5,3.31-.5,1.01,0,1.95.11,2.81.31.86.21,1.61.55,2.24,1.02.63.47,1.12,1.09,1.48,1.87.36.78.54,1.73.54,2.87v9.1c0,.79.13,1.38.39,1.76.26.38.81.48,1.65.28h.11v2.18c-.2.07-.42.14-.67.2-.25.06-.57.09-.96.09-1.9,0-3-.95-3.29-2.85ZM122.2,327.99c.74-.33,1.34-.75,1.81-1.24.47-.49.82-1.04,1.05-1.65.23-.6.35-1.19.35-1.76v-3.26c-.49.32-1.14.6-1.94.83-.8.23-1.61.43-2.42.57-.74.15-1.44.3-2.11.44s-1.24.36-1.72.65c-.48.28-.86.65-1.15,1.09-.28.44-.43,1.01-.43,1.7,0,.64.12,1.17.35,1.57.23.41.54.72.91.94.37.22.79.38,1.26.46.47.09.95.13,1.44.13.99,0,1.85-.17,2.59-.5Z"/>
    <path class="cls-2" d="M133.63,329.21c-1.43-1.17-2.22-2.84-2.37-5.01h3.07c.1.84.31,1.53.63,2.07.32.54.72.97,1.2,1.29.48.32,1.03.55,1.65.68.62.14,1.28.2,2,.2,1.58,0,2.71-.3,3.4-.91.69-.6,1.04-1.35,1.04-2.24,0-.54-.09-.99-.28-1.35-.19-.36-.48-.66-.89-.91-.41-.25-.93-.46-1.55-.63-.63-.17-1.39-.36-2.28-.55-.94-.2-1.84-.41-2.7-.63-.86-.22-1.62-.54-2.28-.94-.65-.41-1.18-.94-1.57-1.61s-.59-1.52-.59-2.55c0-1.6.59-2.88,1.76-3.83,1.17-.95,2.88-1.42,5.12-1.42,2.39,0,4.19.53,5.38,1.59,1.2,1.06,1.91,2.53,2.13,4.4h-3.07c-.15-1.26-.58-2.18-1.29-2.76-.72-.58-1.79-.87-3.22-.87s-2.37.27-2.96.8c-.59.53-.89,1.18-.89,1.94,0,.52.11.94.33,1.28s.56.61,1,.83c.44.22.99.41,1.63.55.64.15,1.37.31,2.18.48.96.2,1.87.41,2.72.65.85.23,1.6.57,2.26,1,.65.43,1.17.99,1.54,1.68.37.69.56,1.59.56,2.7,0,.96-.19,1.81-.56,2.53-.37.73-.89,1.33-1.55,1.81-.67.48-1.46.85-2.39,1.09-.92.25-1.94.37-3.05.37-2.64,0-4.67-.59-6.1-1.76Z"/>
    <path class="cls-2" d="M160.33,330.14c-1.15-.53-2.12-1.25-2.9-2.16s-1.39-1.98-1.81-3.2c-.42-1.22-.63-2.52-.63-3.9s.22-2.68.65-3.9c.43-1.22,1.05-2.29,1.85-3.2.8-.91,1.76-1.63,2.87-2.16,1.11-.53,2.34-.8,3.7-.8,1.43,0,2.69.27,3.79.8,1.1.53,2.02,1.27,2.76,2.22.74.95,1.3,2.08,1.68,3.4.38,1.32.57,2.77.57,4.35h-14.8c.05.96.22,1.86.52,2.7.3.84.7,1.57,1.22,2.18.52.62,1.15,1.1,1.89,1.44.74.35,1.59.52,2.55.52,1.41,0,2.55-.33,3.44-.98.89-.65,1.5-1.63,1.85-2.94h2.92c-.44,2.07-1.38,3.66-2.81,4.77s-3.23,1.67-5.4,1.67c-1.46,0-2.76-.27-3.9-.8ZM161.68,313.63c-.69.31-1.28.74-1.76,1.29-.48.55-.88,1.21-1.18,1.96s-.51,1.56-.61,2.42h11.51c-.1-1.92-.62-3.43-1.57-4.51-.95-1.09-2.29-1.63-4.01-1.63-.89,0-1.68.15-2.37.46Z"/>
    <path class="cls-2" d="M187.5,327.75h-.04c-.3.37-.64.73-1.04,1.09-.4.36-.85.68-1.37.98-.52.3-1.1.53-1.76.7-.65.17-1.39.26-2.2.26-.91,0-1.76-.11-2.55-.31-.79-.21-1.47-.54-2.05-.98-.58-.44-1.04-1-1.37-1.67s-.5-1.46-.5-2.37c0-1.13.21-2.06.63-2.77.42-.72,1-1.29,1.74-1.74.74-.44,1.62-.78,2.65-1.02,1.02-.23,2.13-.45,3.31-.65.67-.1,1.28-.2,1.85-.31.57-.11,1.05-.26,1.46-.44.41-.19.72-.43.94-.74.22-.31.33-.72.33-1.24,0-1.08-.37-1.92-1.11-2.5-.74-.58-1.8-.87-3.18-.87-1.55,0-2.73.34-3.51,1.02-.79.68-1.21,1.75-1.26,3.2h-2.89c.02-.91.2-1.77.52-2.57.32-.8.8-1.49,1.42-2.05.63-.57,1.42-1.02,2.37-1.35.95-.33,2.05-.5,3.31-.5,1.01,0,1.95.11,2.81.31.86.21,1.61.55,2.24,1.02.63.47,1.12,1.09,1.48,1.87.36.78.54,1.73.54,2.87v9.1c0,.79.13,1.38.39,1.76.26.38.81.48,1.65.28h.11v2.18c-.2.07-.42.14-.67.2-.25.06-.57.09-.96.09-1.9,0-3-.95-3.29-2.85ZM184.36,327.99c.74-.33,1.34-.75,1.81-1.24.47-.49.82-1.04,1.05-1.65.23-.6.35-1.19.35-1.76v-3.26c-.49.32-1.14.6-1.94.83-.8.23-1.61.43-2.42.57-.74.15-1.44.3-2.11.44s-1.24.36-1.72.65c-.48.28-.86.65-1.15,1.09-.28.44-.43,1.01-.43,1.7,0,.64.12,1.17.35,1.57.23.41.54.72.91.94.37.22.79.38,1.26.46.47.09.95.13,1.44.13.99,0,1.85-.17,2.59-.5Z"/>
    <path class="cls-2" d="M195.79,329.21c-1.43-1.17-2.22-2.84-2.37-5.01h3.07c.1.84.31,1.53.63,2.07.32.54.72.97,1.2,1.29.48.32,1.03.55,1.65.68.62.14,1.28.2,2,.2,1.58,0,2.71-.3,3.4-.91.69-.6,1.04-1.35,1.04-2.24,0-.54-.09-.99-.28-1.35-.19-.36-.48-.66-.89-.91-.41-.25-.93-.46-1.55-.63-.63-.17-1.39-.36-2.28-.55-.94-.2-1.84-.41-2.7-.63-.86-.22-1.62-.54-2.28-.94-.65-.41-1.18-.94-1.57-1.61s-.59-1.52-.59-2.55c0-1.6.59-2.88,1.76-3.83,1.17-.95,2.88-1.42,5.12-1.42,2.39,0,4.19.53,5.38,1.59,1.2,1.06,1.91,2.53,2.13,4.4h-3.07c-.15-1.26-.58-2.18-1.29-2.76-.72-.58-1.79-.87-3.22-.87s-2.37.27-2.96.8c-.59.53-.89,1.18-.89,1.94,0,.52.11.94.33,1.28s.56.61,1,.83c.44.22.99.41,1.63.55.64.15,1.37.31,2.18.48.96.2,1.87.41,2.72.65.85.23,1.6.57,2.26,1,.65.43,1.17.99,1.54,1.68.37.69.56,1.59.56,2.7,0,.96-.19,1.81-.56,2.53-.37.73-.89,1.33-1.55,1.81-.67.48-1.46.85-2.39,1.09-.92.25-1.94.37-3.05.37-2.64,0-4.67-.59-6.1-1.76Z"/>
    <path class="cls-2" d="M213.13,336.67c-.41-.05-.82-.16-1.24-.33v-2.66h.15c.2.12.46.22.8.3.33.07.75.11,1.24.11.64,0,1.18-.15,1.63-.46.44-.31.85-.93,1.22-1.87l.74-1.89-7.47-18.57h3.26l4.51,11.91c.15.42.3.85.44,1.28.15.43.28.83.41,1.2.15.44.3.86.44,1.26h.07c.12-.39.26-.81.41-1.26.12-.37.26-.77.41-1.2.15-.43.3-.86.44-1.28l4.37-11.91h3.18l-8.18,20.68c-.39.99-.78,1.79-1.17,2.4-.38.62-.79,1.1-1.22,1.46-.43.36-.89.6-1.37.72-.48.12-1.02.19-1.61.19s-1.05-.02-1.46-.07Z"/>
    <path class="cls-2" d="M247.85,327.75h-.04c-.3.37-.64.73-1.04,1.09-.4.36-.85.68-1.37.98-.52.3-1.1.53-1.76.7-.65.17-1.39.26-2.2.26-.91,0-1.76-.11-2.55-.31-.79-.21-1.47-.54-2.05-.98-.58-.44-1.04-1-1.37-1.67s-.5-1.46-.5-2.37c0-1.13.21-2.06.63-2.77.42-.72,1-1.29,1.74-1.74.74-.44,1.62-.78,2.65-1.02,1.02-.23,2.13-.45,3.31-.65.67-.1,1.28-.2,1.85-.31.57-.11,1.05-.26,1.46-.44.41-.19.72-.43.94-.74.22-.31.33-.72.33-1.24,0-1.08-.37-1.92-1.11-2.5-.74-.58-1.8-.87-3.18-.87-1.55,0-2.73.34-3.51,1.02-.79.68-1.21,1.75-1.26,3.2h-2.89c.02-.91.2-1.77.52-2.57.32-.8.8-1.49,1.42-2.05.63-.57,1.42-1.02,2.37-1.35.95-.33,2.05-.5,3.31-.5,1.01,0,1.95.11,2.81.31.86.21,1.61.55,2.24,1.02.63.47,1.12,1.09,1.48,1.87.36.78.54,1.73.54,2.87v9.1c0,.79.13,1.38.39,1.76.26.38.81.48,1.65.28h.11v2.18c-.2.07-.42.14-.67.2-.25.06-.57.09-.96.09-1.9,0-3-.95-3.29-2.85ZM244.71,327.99c.74-.33,1.34-.75,1.81-1.24.47-.49.82-1.04,1.05-1.65.23-.6.35-1.19.35-1.76v-3.26c-.49.32-1.14.6-1.94.83-.8.23-1.61.43-2.42.57-.74.15-1.44.3-2.11.44s-1.24.36-1.72.65c-.48.28-.86.65-1.15,1.09-.28.44-.43,1.01-.43,1.7,0,.64.12,1.17.35,1.57.23.41.54.72.91.94.37.22.79.38,1.26.46.47.09.95.13,1.44.13.99,0,1.85-.17,2.59-.5Z"/>
    <path class="cls-2" d="M256.14,329.21c-1.43-1.17-2.22-2.84-2.37-5.01h3.07c.1.84.31,1.53.63,2.07.32.54.72.97,1.2,1.29.48.32,1.03.55,1.65.68.62.14,1.28.2,2,.2,1.58,0,2.71-.3,3.4-.91.69-.6,1.04-1.35,1.04-2.24,0-.54-.09-.99-.28-1.35-.19-.36-.48-.66-.89-.91-.41-.25-.93-.46-1.55-.63-.63-.17-1.39-.36-2.28-.55-.94-.2-1.84-.41-2.7-.63-.86-.22-1.62-.54-2.28-.94-.65-.41-1.18-.94-1.57-1.61s-.59-1.52-.59-2.55c0-1.6.59-2.88,1.76-3.83,1.17-.95,2.88-1.42,5.12-1.42,2.39,0,4.19.53,5.38,1.59,1.2,1.06,1.91,2.53,2.13,4.4h-3.07c-.15-1.26-.58-2.18-1.29-2.76-.72-.58-1.79-.87-3.22-.87s-2.37.27-2.96.8c-.59.53-.89,1.18-.89,1.94,0,.52.11.94.33,1.28s.56.61,1,.83c.44.22.99.41,1.63.55.64.15,1.37.31,2.18.48.96.2,1.87.41,2.72.65.85.23,1.6.57,2.26,1,.65.43,1.17.99,1.54,1.68.37.69.56,1.59.56,2.7,0,.96-.19,1.81-.56,2.53-.37.73-.89,1.33-1.55,1.81-.67.48-1.46.85-2.39,1.09-.92.25-1.94.37-3.05.37-2.64,0-4.67-.59-6.1-1.76Z"/>
    <path class="cls-2" d="M277.56,311.17v-2.18c.81-.02,1.59-.12,2.33-.3.74-.17,1.4-.46,1.98-.87.58-.41,1.07-.94,1.46-1.59.39-.65.65-1.46.78-2.42h2.59v26.6h-3.33v-19.24h-5.81Z"/>
    <path class="cls-2" d="M292.44,332.61c.35-.43.52-1.17.52-2.2h-1.7v-3.66h3.59v3.77c0,1.36-.33,2.42-.98,3.18-.65.76-1.51,1.25-2.57,1.44v-1.67c.42-.15.8-.44,1.15-.87Z"/>
    <path class="cls-2" d="M304.35,325.88c.62-1.25,1.39-2.34,2.31-3.27.92-.94,1.97-1.76,3.13-2.46,1.16-.7,2.32-1.39,3.48-2.05.86-.49,1.64-.96,2.33-1.41.69-.44,1.28-.92,1.76-1.42.48-.51.84-1.05,1.09-1.65.25-.59.37-1.28.37-2.07,0-1.63-.51-2.95-1.54-3.96-1.02-1.01-2.42-1.52-4.2-1.52-.94,0-1.74.15-2.4.44-.67.3-1.25.7-1.74,1.22-.54.57-.93,1.25-1.17,2.05-.23.8-.35,1.88-.35,3.24h-3.44c0-1.7.22-3.12.65-4.25.43-1.13,1.05-2.11,1.87-2.92.86-.84,1.89-1.46,3.07-1.87,1.18-.41,2.45-.61,3.81-.61s2.55.2,3.64.61c1.1.41,2.03.97,2.79,1.68.76.72,1.36,1.57,1.78,2.57.42,1,.63,2.09.63,3.27,0,1.26-.2,2.33-.61,3.22-.41.89-.96,1.67-1.65,2.35-.69.68-1.5,1.29-2.44,1.85-.94.55-1.94,1.13-3,1.72-.72.4-1.46.83-2.24,1.29-.78.47-1.5.98-2.18,1.54-.68.56-1.28,1.15-1.79,1.78s-.86,1.31-1.04,2.05h14.39v3.11h-18.35c.07-1.78.42-3.29,1.04-4.53Z"/>
    <path class="cls-2" d="M326.33,332.61c.35-.43.52-1.17.52-2.2h-1.7v-3.66h3.59v3.77c0,1.36-.33,2.42-.98,3.18-.65.76-1.51,1.25-2.57,1.44v-1.67c.42-.15.8-.44,1.15-.87Z"/>
    <path class="cls-2" d="M343.4,330.36c-1.27-.41-2.38-1-3.33-1.78-.95-.78-1.7-1.74-2.26-2.9-.55-1.16-.85-2.49-.87-4h3.22c.07,2.15.75,3.77,2.02,4.88,1.27,1.11,3,1.67,5.2,1.67,1.82,0,3.32-.44,4.48-1.33,1.16-.89,1.74-2.28,1.74-4.18,0-1.7-.59-2.98-1.78-3.83s-2.9-1.28-5.14-1.28h-1.67v-2.55h1.63c2.07,0,3.61-.4,4.62-1.2,1.01-.8,1.52-1.92,1.52-3.35,0-.72-.15-1.36-.44-1.92-.3-.57-.7-1.04-1.22-1.42-.52-.38-1.12-.68-1.81-.89-.69-.21-1.43-.31-2.22-.31-1.92,0-3.42.55-4.48,1.65-1.06,1.1-1.59,2.57-1.59,4.42h-3.18c0-1.31.22-2.49.65-3.55s1.05-1.97,1.87-2.74c.81-.76,1.79-1.35,2.94-1.76,1.15-.41,2.45-.61,3.9-.61,1.23,0,2.39.16,3.46.48,1.07.32,2,.79,2.79,1.41.79.62,1.41,1.38,1.87,2.28.46.9.68,1.93.68,3.09,0,1.48-.41,2.67-1.22,3.57-.81.9-1.86,1.56-3.15,1.98v.11c1.87.49,3.24,1.31,4.09,2.46s1.28,2.58,1.28,4.31c0,1.26-.25,2.38-.74,3.37-.49.99-1.17,1.81-2.02,2.48s-1.86,1.18-3.02,1.54c-1.16.36-2.4.54-3.74.54-1.46,0-2.82-.2-4.09-.61Z"/>
    <path class="cls-2" d="M364.36,326.75v3.66h-3.59v-3.66h3.59ZM360.92,303.96h3.29v8.47l-.81,11.58h-1.67l-.81-11.58v-8.47Z"/>
    <path class="cls-2" d="M65.04,355.57v-2.18c.81-.02,1.59-.12,2.33-.3.74-.17,1.4-.46,1.98-.87.58-.41,1.07-.94,1.46-1.59.39-.65.65-1.46.78-2.42h2.59v26.6h-3.33v-19.24h-5.81Z"/>
    <path class="cls-2" d="M82.31,371.15v3.66h-3.59v-3.66h3.59Z"/>
    <path class="cls-2" d="M119.25,374.61c-1.38-.48-2.53-1.15-3.46-2s-1.63-1.86-2.13-3.02c-.49-1.16-.78-2.41-.85-3.74h3.26c.44,4.54,3.17,6.81,8.18,6.81.91,0,1.76-.1,2.53-.31.78-.21,1.44-.52,2-.93.56-.41.99-.92,1.3-1.55.31-.63.46-1.35.46-2.16,0-.91-.19-1.67-.57-2.26-.38-.59-.92-1.09-1.61-1.48-.69-.39-1.52-.72-2.5-.98-.97-.26-2.05-.52-3.24-.8-1.16-.25-2.26-.54-3.31-.87-1.05-.33-1.97-.77-2.76-1.31s-1.42-1.23-1.89-2.05c-.47-.83-.7-1.87-.7-3.13,0-1.08.22-2.06.65-2.92.43-.86,1.04-1.6,1.83-2.2.79-.6,1.74-1.07,2.85-1.39,1.11-.32,2.33-.48,3.66-.48,1.65,0,3.08.2,4.27.61,1.2.41,2.19.97,2.98,1.68.79.72,1.41,1.59,1.85,2.61.44,1.02.75,2.14.92,3.35h-3.15c-.25-1.9-.96-3.32-2.13-4.25-1.17-.94-2.73-1.41-4.68-1.41-1.8,0-3.24.36-4.33,1.09-1.09.73-1.63,1.78-1.63,3.16,0,.74.17,1.36.52,1.87.35.51.83.94,1.44,1.29.62.36,1.35.65,2.2.87.85.22,1.77.43,2.76.63,1.28.27,2.52.57,3.7.91s2.23.8,3.15,1.39c.91.59,1.64,1.36,2.18,2.31.54.95.81,2.16.81,3.64,0,1.23-.24,2.33-.72,3.29s-1.15,1.77-2.02,2.42c-.86.65-1.89,1.15-3.07,1.5s-2.49.52-3.92.52c-1.85,0-3.47-.24-4.85-.72Z"/>
    <path class="cls-2" d="M141.47,374.54c-1.15-.53-2.12-1.25-2.9-2.16s-1.39-1.98-1.81-3.2c-.42-1.22-.63-2.52-.63-3.9s.22-2.68.65-3.9c.43-1.22,1.05-2.29,1.85-3.2.8-.91,1.76-1.63,2.87-2.16,1.11-.53,2.34-.8,3.7-.8,1.43,0,2.69.27,3.79.8,1.1.53,2.02,1.27,2.76,2.22.74.95,1.3,2.08,1.68,3.4.38,1.32.57,2.77.57,4.35h-14.8c.05.96.22,1.86.52,2.7.3.84.7,1.57,1.22,2.18.52.62,1.15,1.1,1.89,1.44.74.35,1.59.52,2.55.52,1.41,0,2.55-.33,3.44-.98.89-.65,1.5-1.63,1.85-2.94h2.92c-.44,2.07-1.38,3.66-2.81,4.77s-3.23,1.67-5.4,1.67c-1.46,0-2.76-.27-3.9-.8ZM142.82,358.03c-.69.31-1.28.74-1.76,1.29-.48.55-.88,1.21-1.18,1.96s-.51,1.56-.61,2.42h11.51c-.1-1.92-.62-3.43-1.57-4.51-.95-1.09-2.29-1.63-4.01-1.63-.89,0-1.68.15-2.37.46Z"/>
    <path class="cls-2" d="M161.19,374.54c-1.15-.53-2.12-1.25-2.9-2.16s-1.39-1.98-1.81-3.2c-.42-1.22-.63-2.52-.63-3.9s.22-2.68.65-3.9c.43-1.22,1.05-2.29,1.85-3.2.8-.91,1.76-1.63,2.87-2.16,1.11-.53,2.34-.8,3.7-.8,1.43,0,2.69.27,3.79.8,1.1.53,2.02,1.27,2.76,2.22.74.95,1.3,2.08,1.68,3.4.38,1.32.57,2.77.57,4.35h-14.8c.05.96.22,1.86.52,2.7.3.84.7,1.57,1.22,2.18.52.62,1.15,1.1,1.89,1.44.74.35,1.59.52,2.55.52,1.41,0,2.55-.33,3.44-.98.89-.65,1.5-1.63,1.85-2.94h2.92c-.44,2.07-1.38,3.66-2.81,4.77s-3.23,1.67-5.4,1.67c-1.46,0-2.76-.27-3.9-.8ZM162.54,358.03c-.69.31-1.28.74-1.76,1.29-.48.55-.88,1.21-1.18,1.96s-.51,1.56-.61,2.42h11.51c-.1-1.92-.62-3.43-1.57-4.51-.95-1.09-2.29-1.63-4.01-1.63-.89,0-1.68.15-2.37.46Z"/>
    <path class="cls-2" d="M184.07,355.68v-6.03h3v6.03h3.7v2.44h-3.7v12.43c0,.67.17,1.13.5,1.39.33.26.81.39,1.42.39.3,0,.59-.03.89-.09s.53-.12.7-.17h.11v2.59c-.35.07-.72.14-1.13.19-.41.05-.83.07-1.28.07-1.23,0-2.25-.28-3.03-.83-.79-.55-1.18-1.51-1.18-2.87v-13.1h-2.77v-2.44h2.77Z"/>
    <path class="cls-2" d="M196.95,358.2c.69-.91,1.52-1.63,2.5-2.16.97-.53,2.16-.8,3.57-.8,2,0,3.57.52,4.72,1.57,1.15,1.05,1.72,2.57,1.72,4.57v13.43h-3v-13.17c0-1.26-.38-2.22-1.15-2.89s-1.83-1-3.18-1c-.77,0-1.47.13-2.11.39-.64.26-1.2.62-1.66,1.07-.47.46-.83,1.01-1.09,1.67-.26.65-.39,1.38-.39,2.16v11.77h-3v-26.46h3v9.84h.07Z"/>
    <path class="cls-2" d="M217.69,374.54c-1.15-.53-2.12-1.25-2.9-2.16s-1.39-1.98-1.81-3.2c-.42-1.22-.63-2.52-.63-3.9s.22-2.68.65-3.9c.43-1.22,1.05-2.29,1.85-3.2.8-.91,1.76-1.63,2.87-2.16,1.11-.53,2.34-.8,3.7-.8,1.43,0,2.69.27,3.79.8,1.1.53,2.02,1.27,2.76,2.22.74.95,1.3,2.08,1.68,3.4.38,1.32.57,2.77.57,4.35h-14.8c.05.96.22,1.86.52,2.7.3.84.7,1.57,1.22,2.18.52.62,1.15,1.1,1.89,1.44.74.35,1.59.52,2.55.52,1.41,0,2.55-.33,3.44-.98.89-.65,1.5-1.63,1.85-2.94h2.92c-.44,2.07-1.38,3.66-2.81,4.77s-3.23,1.67-5.4,1.67c-1.46,0-2.76-.27-3.9-.8ZM219.04,358.03c-.69.31-1.28.74-1.76,1.29-.48.55-.88,1.21-1.18,1.96s-.51,1.56-.61,2.42h11.51c-.1-1.92-.62-3.43-1.57-4.51-.95-1.09-2.29-1.63-4.01-1.63-.89,0-1.68.15-2.37.46Z"/>
    <path class="cls-2" d="M243.35,374.54c-1.13-.53-2.1-1.25-2.9-2.16-.8-.91-1.42-1.98-1.85-3.2-.43-1.22-.65-2.52-.65-3.9s.22-2.68.65-3.9c.43-1.22,1.05-2.29,1.85-3.2.8-.91,1.77-1.63,2.9-2.16,1.13-.53,2.42-.8,3.85-.8s2.71.27,3.85.8c1.13.53,2.1,1.25,2.9,2.16.8.91,1.41,1.98,1.83,3.2.42,1.22.63,2.52.63,3.9s-.21,2.68-.63,3.9c-.42,1.22-1.03,2.29-1.83,3.2-.8.91-1.77,1.63-2.9,2.16-1.13.53-2.42.8-3.85.8s-2.71-.27-3.85-.8ZM249.86,372.22c.76-.39,1.41-.93,1.92-1.61.52-.68.91-1.47,1.17-2.39.26-.91.39-1.9.39-2.96s-.13-2.05-.39-2.96c-.26-.91-.65-1.71-1.17-2.41-.52-.69-1.16-1.23-1.92-1.63-.76-.39-1.65-.59-2.66-.59s-1.91.2-2.68.59c-.78.4-1.42.94-1.94,1.63-.52.69-.91,1.49-1.17,2.41-.26.91-.39,1.9-.39,2.96s.13,2.05.39,2.96c.26.91.65,1.71,1.17,2.39.52.68,1.17,1.22,1.94,1.61.78.39,1.67.59,2.68.59s1.9-.2,2.66-.59Z"/>
    <path class="cls-2" d="M260.44,355.68v-2.85c0-1.65.44-2.81,1.33-3.48s2.13-1,3.74-1c.3,0,.56,0,.8.02.23.01.45.03.65.06v2.55c-.22-.02-.4-.04-.52-.04h-.41c-.94,0-1.6.14-2,.43-.39.28-.59.82-.59,1.61v2.7h6.1v-3.07c0-1.65.44-2.81,1.33-3.48s2.13-1,3.74-1c.32,0,.6,0,.85.02.25.01.47.03.67.06v2.55c-.27-.02-.46-.04-.57-.04h-.39c-.96,0-1.64.14-2.04.43-.39.28-.59.82-.59,1.61v2.92h3.55v2.44h-3.55v16.69h-3v-16.69h-6.1v16.69h-3v-16.69h-2.63v-2.44h2.63Z"/>
    <path class="cls-2" d="M282.73,374.54c-1.15-.53-2.12-1.25-2.9-2.16s-1.39-1.98-1.81-3.2c-.42-1.22-.63-2.52-.63-3.9s.22-2.68.65-3.9c.43-1.22,1.05-2.29,1.85-3.2.8-.91,1.76-1.63,2.87-2.16,1.11-.53,2.34-.8,3.7-.8,1.43,0,2.69.27,3.79.8,1.1.53,2.02,1.27,2.76,2.22.74.95,1.3,2.08,1.68,3.4.38,1.32.57,2.77.57,4.35h-14.8c.05.96.22,1.86.52,2.7.3.84.7,1.57,1.22,2.18.52.62,1.15,1.1,1.89,1.44.74.35,1.59.52,2.55.52,1.41,0,2.55-.33,3.44-.98.89-.65,1.5-1.63,1.85-2.94h2.92c-.44,2.07-1.38,3.66-2.81,4.77s-3.23,1.67-5.4,1.67c-1.46,0-2.76-.27-3.9-.8ZM284.09,358.03c-.69.31-1.28.74-1.76,1.29-.48.55-.88,1.21-1.18,1.96s-.51,1.56-.61,2.42h11.51c-.1-1.92-.62-3.43-1.57-4.51-.95-1.09-2.29-1.63-4.01-1.63-.89,0-1.68.15-2.37.46Z"/>
    <path class="cls-2" d="M301.25,358.87c.57-.94,1.34-1.74,2.31-2.41.97-.67,2.1-1,3.39-1,.27,0,.49.02.67.06.17.04.36.09.55.17v2.89h-.11c-.22-.07-.43-.12-.61-.15-.19-.02-.43-.04-.72-.04-.74,0-1.44.14-2.11.41-.67.27-1.26.65-1.78,1.15-.52.49-.92,1.1-1.22,1.83-.3.73-.44,1.54-.44,2.42v10.62h-3v-19.13h3v3.18h.07Z"/>
    <path class="cls-2" d="M317.9,373.61c-1.43-1.17-2.22-2.84-2.37-5.01h3.07c.1.84.31,1.53.63,2.07.32.54.72.97,1.2,1.29.48.32,1.03.55,1.65.68.62.14,1.28.2,2,.2,1.58,0,2.71-.3,3.4-.91.69-.6,1.04-1.35,1.04-2.24,0-.54-.09-.99-.28-1.35-.19-.36-.48-.66-.89-.91-.41-.25-.93-.46-1.55-.63-.63-.17-1.39-.36-2.28-.55-.94-.2-1.84-.41-2.7-.63-.86-.22-1.62-.54-2.28-.94-.65-.41-1.18-.94-1.57-1.61s-.59-1.52-.59-2.55c0-1.6.59-2.88,1.76-3.83,1.17-.95,2.88-1.42,5.12-1.42,2.39,0,4.19.53,5.38,1.59,1.2,1.06,1.91,2.53,2.13,4.4h-3.07c-.15-1.26-.58-2.18-1.29-2.76-.72-.58-1.79-.87-3.22-.87s-2.37.27-2.96.8c-.59.53-.89,1.18-.89,1.94,0,.52.11.94.33,1.28s.56.61,1,.83c.44.22.99.41,1.63.55.64.15,1.37.31,2.18.48.96.2,1.87.41,2.72.65.85.23,1.6.57,2.26,1,.65.43,1.17.99,1.54,1.68.37.69.56,1.59.56,2.7,0,.96-.19,1.81-.56,2.53-.37.73-.89,1.33-1.55,1.81-.67.48-1.46.85-2.39,1.09-.92.25-1.94.37-3.05.37-2.64,0-4.67-.59-6.1-1.76Z"/>
    <path class="cls-2" d="M337.51,358.2c.69-.91,1.52-1.63,2.5-2.16.97-.53,2.16-.8,3.57-.8,2,0,3.57.52,4.72,1.57,1.15,1.05,1.72,2.57,1.72,4.57v13.43h-3v-13.17c0-1.26-.38-2.22-1.15-2.89s-1.83-1-3.18-1c-.77,0-1.47.13-2.11.39-.64.26-1.2.62-1.66,1.07-.47.46-.83,1.01-1.09,1.67-.26.65-.39,1.38-.39,2.16v11.77h-3v-26.46h3v9.84h.07Z"/>
    <path class="cls-2" d="M358.25,374.54c-1.15-.53-2.12-1.25-2.9-2.16s-1.39-1.98-1.81-3.2c-.42-1.22-.63-2.52-.63-3.9s.22-2.68.65-3.9c.43-1.22,1.05-2.29,1.85-3.2.8-.91,1.76-1.63,2.87-2.16,1.11-.53,2.34-.8,3.7-.8,1.43,0,2.69.27,3.79.8,1.1.53,2.02,1.27,2.76,2.22.74.95,1.3,2.08,1.68,3.4.38,1.32.57,2.77.57,4.35h-14.8c.05.96.22,1.86.52,2.7.3.84.7,1.57,1.22,2.18.52.62,1.15,1.1,1.89,1.44.74.35,1.59.52,2.55.52,1.41,0,2.55-.33,3.44-.98.89-.65,1.5-1.63,1.85-2.94h2.92c-.44,2.07-1.38,3.66-2.81,4.77s-3.23,1.67-5.4,1.67c-1.46,0-2.76-.27-3.9-.8ZM359.6,358.03c-.69.31-1.28.74-1.76,1.29-.48.55-.88,1.21-1.18,1.96s-.51,1.56-.61,2.42h11.51c-.1-1.92-.62-3.43-1.57-4.51-.95-1.09-2.29-1.63-4.01-1.63-.89,0-1.68.15-2.37.46Z"/>
    <path class="cls-2" d="M377.97,374.54c-1.15-.53-2.12-1.25-2.9-2.16s-1.39-1.98-1.81-3.2c-.42-1.22-.63-2.52-.63-3.9s.22-2.68.65-3.9c.43-1.22,1.05-2.29,1.85-3.2.8-.91,1.76-1.63,2.87-2.16,1.11-.53,2.34-.8,3.7-.8,1.43,0,2.69.27,3.79.8,1.1.53,2.02,1.27,2.76,2.22.74.95,1.3,2.08,1.68,3.4.38,1.32.57,2.77.57,4.35h-14.8c.05.96.22,1.86.52,2.7.3.84.7,1.57,1.22,2.18.52.62,1.15,1.1,1.89,1.44.74.35,1.59.52,2.55.52,1.41,0,2.55-.33,3.44-.98.89-.65,1.5-1.63,1.85-2.94h2.92c-.44,2.07-1.38,3.66-2.81,4.77s-3.23,1.67-5.4,1.67c-1.46,0-2.76-.27-3.9-.8ZM379.32,358.03c-.69.31-1.28.74-1.76,1.29-.48.55-.88,1.21-1.18,1.96s-.51,1.56-.61,2.42h11.51c-.1-1.92-.62-3.43-1.57-4.51-.95-1.09-2.29-1.63-4.01-1.63-.89,0-1.68.15-2.37.46Z"/>
    <path class="cls-2" d="M394.6,355.68v-6.03h3v6.03h3.7v2.44h-3.7v12.43c0,.67.17,1.13.5,1.39.33.26.81.39,1.42.39.3,0,.59-.03.89-.09s.53-.12.7-.17h.11v2.59c-.35.07-.72.14-1.13.19-.41.05-.83.07-1.28.07-1.23,0-2.25-.28-3.03-.83-.79-.55-1.18-1.51-1.18-2.87v-13.1h-2.77v-2.44h2.77Z"/>
    <path class="cls-2" d="M414.16,375.59c-.65-1.23-1.22-2.53-1.7-3.9-.48-1.37-.86-2.82-1.15-4.35-.28-1.53-.43-3.17-.43-4.92,0-1.6.15-3.13.44-4.59.3-1.46.7-2.82,1.2-4.11.51-1.28,1.08-2.49,1.72-3.63.64-1.13,1.32-2.2,2.04-3.18h2.44c-1.23,2.1-2.26,4.44-3.09,7.03-.83,2.59-1.24,5.42-1.24,8.47,0,1.63.09,3.18.28,4.66.18,1.48.46,2.9.83,4.27s.83,2.7,1.37,3.98c.54,1.28,1.16,2.56,1.85,3.85h-2.44c-.76-1.16-1.47-2.36-2.13-3.59Z"/>
    <path class="cls-2" d="M424.61,358.87c.57-.94,1.34-1.74,2.31-2.41s2.1-1,3.39-1c.27,0,.49.02.67.06.17.04.36.09.55.17v2.89h-.11c-.22-.07-.43-.12-.61-.15-.19-.02-.43-.04-.72-.04-.74,0-1.44.14-2.11.41-.67.27-1.26.65-1.78,1.15-.52.49-.92,1.1-1.22,1.83-.3.73-.44,1.54-.44,2.42v10.62h-3v-19.13h3v3.18h.07Z"/>
    <path class="cls-2" d="M437.23,348.36v3.7h-3v-3.7h3ZM437.23,355.68v19.13h-3v-19.13h3Z"/>
    <path class="cls-2" d="M443.13,379.77c-1.37-.94-2.14-2.23-2.31-3.88h2.77c.15,1.06.69,1.81,1.63,2.26s2.15.67,3.63.67c1.78,0,3.13-.4,4.07-1.2.94-.8,1.41-2.04,1.41-3.72v-2.7h-.07c-.72.91-1.49,1.63-2.33,2.16-.84.53-1.95.8-3.33.8-1.23,0-2.36-.23-3.39-.7-1.02-.47-1.91-1.12-2.65-1.96-.74-.84-1.31-1.84-1.72-3-.41-1.16-.61-2.43-.61-3.81,0-1.48.22-2.81.65-3.98.43-1.17,1.02-2.16,1.78-2.98.75-.81,1.62-1.43,2.61-1.85s2.04-.63,3.15-.63c1.41,0,2.57.25,3.5.76.92.51,1.71,1.22,2.35,2.13h.07v-2.44h3v18.09c0,1.26-.2,2.35-.59,3.27-.39.93-.96,1.7-1.7,2.31-.74.62-1.63,1.07-2.66,1.37-1.04.3-2.18.44-3.44.44-2.49,0-4.42-.47-5.79-1.41ZM451.51,371.09c.74-.36,1.33-.86,1.78-1.5.44-.64.76-1.39.96-2.26.2-.86.3-1.8.3-2.81,0-2.1-.46-3.75-1.39-4.96-.92-1.21-2.41-1.81-4.46-1.81-1.8,0-3.15.64-4.05,1.92-.9,1.28-1.35,2.96-1.35,5.03s.46,3.77,1.39,5.03c.92,1.26,2.28,1.89,4.05,1.89,1.11,0,2.03-.18,2.77-.54Z"/>
    <path class="cls-2" d="M464.46,358.2c.69-.91,1.52-1.63,2.5-2.16.97-.53,2.17-.8,3.57-.8,2,0,3.57.52,4.72,1.57,1.15,1.05,1.72,2.57,1.72,4.57v13.43h-3v-13.17c0-1.26-.38-2.22-1.15-2.89s-1.83-1-3.18-1c-.76,0-1.47.13-2.11.39-.64.26-1.2.62-1.66,1.07-.47.46-.83,1.01-1.09,1.67-.26.65-.39,1.38-.39,2.16v11.77h-3v-26.46h3v9.84h.07Z"/>
    <path class="cls-2" d="M482.11,355.68v-6.03h3v6.03h3.7v2.44h-3.7v12.43c0,.67.17,1.13.5,1.39.33.26.81.39,1.42.39.3,0,.59-.03.89-.09s.53-.12.7-.17h.11v2.59c-.35.07-.72.14-1.13.19-.41.05-.83.07-1.28.07-1.23,0-2.25-.28-3.03-.83-.79-.55-1.18-1.51-1.18-2.87v-13.1h-2.77v-2.44h2.77Z"/>
    <path class="cls-2" d="M492.54,375.33c.54-1.28,1-2.61,1.37-3.98.37-1.37.65-2.79.83-4.27s.28-3.03.28-4.66c0-3.06-.41-5.88-1.24-8.47-.83-2.59-1.86-4.93-3.09-7.03h2.44c.69.99,1.36,2.05,2.02,3.18.65,1.13,1.23,2.34,1.74,3.63.5,1.28.91,2.65,1.2,4.11.3,1.46.44,2.98.44,4.59,0,1.75-.14,3.39-.43,4.92-.28,1.53-.67,2.98-1.15,4.35-.48,1.37-1.05,2.67-1.7,3.9-.65,1.23-1.36,2.43-2.13,3.59h-2.44c.69-1.28,1.31-2.57,1.85-3.85Z"/>
    <path class="cls-2" d="M510.45,355.68v-3.07c0-1.65.44-2.81,1.33-3.48.89-.67,2.13-1,3.74-1,.32,0,.6,0,.85.02.25.01.47.03.67.06v2.55c-.27-.02-.46-.04-.57-.04h-.39c-.96,0-1.64.14-2.04.43-.39.28-.59.82-.59,1.61v2.92h3.55v2.44h-3.55v16.69h-3v-16.69h-2.63v-2.44h2.63Z"/>
    <path class="cls-2" d="M523.69,374.54c-1.13-.53-2.1-1.25-2.9-2.16s-1.42-1.98-1.85-3.2c-.43-1.22-.65-2.52-.65-3.9s.22-2.68.65-3.9c.43-1.22,1.05-2.29,1.85-3.2s1.77-1.63,2.9-2.16c1.13-.53,2.42-.8,3.85-.8s2.71.27,3.85.8c1.13.53,2.1,1.25,2.9,2.16s1.41,1.98,1.83,3.2c.42,1.22.63,2.52.63,3.9s-.21,2.68-.63,3.9c-.42,1.22-1.03,2.29-1.83,3.2s-1.77,1.63-2.9,2.16c-1.13.53-2.42.8-3.85.8s-2.71-.27-3.85-.8ZM530.21,372.22c.76-.39,1.41-.93,1.92-1.61.52-.68.91-1.47,1.17-2.39.26-.91.39-1.9.39-2.96s-.13-2.05-.39-2.96c-.26-.91-.65-1.71-1.17-2.41-.52-.69-1.16-1.23-1.92-1.63-.76-.39-1.65-.59-2.66-.59s-1.91.2-2.68.59c-.78.4-1.42.94-1.94,1.63-.52.69-.91,1.49-1.17,2.41-.26.91-.39,1.9-.39,2.96s.13,2.05.39,2.96c.26.91.65,1.71,1.17,2.39.52.68,1.17,1.22,1.94,1.61s1.67.59,2.68.59,1.9-.2,2.66-.59Z"/>
    <path class="cls-2" d="M542.82,358.87c.57-.94,1.34-1.74,2.31-2.41s2.1-1,3.39-1c.27,0,.49.02.67.06.17.04.36.09.55.17v2.89h-.11c-.22-.07-.43-.12-.61-.15-.19-.02-.43-.04-.72-.04-.74,0-1.44.14-2.11.41-.67.27-1.26.65-1.78,1.15-.52.49-.92,1.1-1.22,1.83-.3.73-.44,1.54-.44,2.42v10.62h-3v-19.13h3v3.18h.07Z"/>
    <path class="cls-2" d="M562.19,374.67c-1.05-.47-1.94-1.14-2.66-2.02-.73-.88-1.29-1.94-1.68-3.18-.39-1.25-.59-2.63-.59-4.16s.22-3,.65-4.26c.43-1.26,1.02-2.31,1.78-3.16.75-.85,1.64-1.5,2.66-1.96,1.02-.46,2.13-.68,3.31-.68,1.36,0,2.54.3,3.55.89,1.01.59,1.83,1.34,2.44,2.26h.07v-10.03h3v26.46h-3v-2.33h-.07c-.72.94-1.54,1.65-2.48,2.15-.94.49-2.08.74-3.44.74s-2.49-.23-3.53-.7ZM568.57,372.28c.76-.38,1.39-.91,1.89-1.57.49-.67.86-1.46,1.09-2.37.23-.91.35-1.91.35-3s-.13-2.13-.39-3.05c-.26-.93-.65-1.72-1.17-2.39-.52-.67-1.16-1.18-1.92-1.55-.76-.37-1.64-.56-2.63-.56-.91,0-1.71.19-2.39.57s-1.25.91-1.7,1.59c-.46.68-.8,1.48-1.04,2.4-.23.93-.35,1.92-.35,2.98s.12,2.08.35,3c.23.91.58,1.7,1.04,2.37s1.03,1.19,1.72,1.57c.69.38,1.49.57,2.41.57,1.06,0,1.97-.19,2.74-.57Z"/>
    <path class="cls-2" d="M583.06,374.54c-1.15-.53-2.12-1.25-2.91-2.16-.79-.91-1.39-1.98-1.81-3.2-.42-1.22-.63-2.52-.63-3.9s.22-2.68.65-3.9c.43-1.22,1.05-2.29,1.85-3.2s1.76-1.63,2.87-2.16c1.11-.53,2.34-.8,3.7-.8,1.43,0,2.7.27,3.79.8,1.1.53,2.02,1.27,2.76,2.22.74.95,1.3,2.08,1.68,3.4.38,1.32.57,2.77.57,4.35h-14.8c.05.96.22,1.86.52,2.7.3.84.7,1.57,1.22,2.18.52.62,1.15,1.1,1.89,1.44.74.35,1.59.52,2.55.52,1.41,0,2.55-.33,3.44-.98.89-.65,1.5-1.63,1.85-2.94h2.92c-.44,2.07-1.38,3.66-2.81,4.77s-3.23,1.67-5.4,1.67c-1.46,0-2.76-.27-3.9-.8ZM584.41,358.03c-.69.31-1.28.74-1.76,1.29-.48.55-.88,1.21-1.18,1.96s-.51,1.56-.61,2.42h11.51c-.1-1.92-.62-3.43-1.57-4.51s-2.29-1.63-4.01-1.63c-.89,0-1.68.15-2.37.46Z"/>
    <path class="cls-2" d="M599.69,355.68v-6.03h3v6.03h3.7v2.44h-3.7v12.43c0,.67.17,1.13.5,1.39.33.26.81.39,1.42.39.3,0,.59-.03.89-.09s.53-.12.7-.17h.11v2.59c-.35.07-.72.14-1.13.19-.41.05-.83.07-1.28.07-1.23,0-2.25-.28-3.03-.83-.79-.55-1.18-1.51-1.18-2.87v-13.1h-2.78v-2.44h2.78Z"/>
    <path class="cls-2" d="M621.22,372.15h-.04c-.3.37-.64.73-1.04,1.09-.4.36-.85.68-1.37.98-.52.3-1.1.53-1.76.7s-1.39.26-2.2.26c-.91,0-1.76-.11-2.55-.31-.79-.21-1.47-.54-2.05-.98-.58-.44-1.04-1-1.37-1.67s-.5-1.46-.5-2.37c0-1.13.21-2.06.63-2.77.42-.72,1-1.29,1.74-1.74.74-.44,1.62-.78,2.65-1.02s2.13-.45,3.31-.65c.67-.1,1.28-.2,1.85-.31.57-.11,1.05-.26,1.46-.44.41-.19.72-.43.94-.74.22-.31.33-.72.33-1.24,0-1.08-.37-1.92-1.11-2.5-.74-.58-1.8-.87-3.18-.87-1.55,0-2.73.34-3.51,1.02-.79.68-1.21,1.75-1.26,3.2h-2.89c.02-.91.2-1.77.52-2.57.32-.8.8-1.49,1.42-2.05.63-.57,1.42-1.02,2.37-1.35.95-.33,2.05-.5,3.31-.5,1.01,0,1.95.11,2.81.31.86.21,1.61.55,2.24,1.02.63.47,1.12,1.09,1.48,1.87.36.78.54,1.73.54,2.87v9.1c0,.79.13,1.38.39,1.76s.81.48,1.65.28h.11v2.18c-.2.07-.42.14-.67.2-.25.06-.57.09-.96.09-1.9,0-3-.95-3.29-2.85ZM618.08,372.39c.74-.33,1.34-.75,1.81-1.24.47-.49.82-1.04,1.05-1.65.23-.6.35-1.19.35-1.76v-3.26c-.49.32-1.14.6-1.94.83-.8.23-1.61.43-2.42.57-.74.15-1.44.3-2.11.44s-1.24.36-1.72.65c-.48.28-.86.65-1.15,1.09-.28.44-.43,1.01-.43,1.7,0,.64.12,1.17.35,1.57.23.41.54.72.91.94.37.22.79.38,1.26.46.47.09.95.13,1.44.13.99,0,1.85-.17,2.59-.5Z"/>
    <path class="cls-2" d="M631.36,348.36v3.7h-3v-3.7h3ZM631.36,355.68v19.13h-3v-19.13h3Z"/>
    <path class="cls-2" d="M638.54,348.36v26.46h-3v-26.46h3Z"/>
    <path class="cls-2" d="M643.87,373.61c-1.43-1.17-2.22-2.84-2.37-5.01h3.07c.1.84.31,1.53.63,2.07.32.54.72.97,1.2,1.29.48.32,1.03.55,1.65.68.62.14,1.28.2,2,.2,1.58,0,2.71-.3,3.4-.91.69-.6,1.04-1.35,1.04-2.24,0-.54-.09-.99-.28-1.35-.19-.36-.48-.66-.89-.91-.41-.25-.93-.46-1.55-.63-.63-.17-1.39-.36-2.28-.55-.94-.2-1.84-.41-2.7-.63-.86-.22-1.62-.54-2.28-.94-.65-.41-1.18-.94-1.57-1.61s-.59-1.52-.59-2.55c0-1.6.58-2.88,1.76-3.83,1.17-.95,2.88-1.42,5.12-1.42,2.39,0,4.19.53,5.38,1.59,1.2,1.06,1.91,2.53,2.13,4.4h-3.07c-.15-1.26-.58-2.18-1.29-2.76s-1.79-.87-3.22-.87-2.37.27-2.96.8c-.59.53-.89,1.18-.89,1.94,0,.52.11.94.33,1.28.22.33.55.61,1,.83s.99.41,1.63.55c.64.15,1.37.31,2.18.48.96.2,1.87.41,2.72.65.85.23,1.6.57,2.26,1,.65.43,1.17.99,1.54,1.68.37.69.56,1.59.56,2.7,0,.96-.19,1.81-.56,2.53-.37.73-.89,1.33-1.55,1.81-.67.48-1.46.85-2.39,1.09-.92.25-1.94.37-3.05.37-2.64,0-4.67-.59-6.11-1.76Z"/>
    <path class="cls-2" d="M663.59,371.15v3.66h-3.59v-3.66h3.59Z"/>
    <path class="cls-2" d="M66,414.68c.62-1.25,1.39-2.34,2.31-3.27.92-.94,1.97-1.76,3.13-2.46,1.16-.7,2.32-1.39,3.48-2.05.86-.49,1.64-.96,2.33-1.41.69-.44,1.28-.92,1.76-1.42s.84-1.05,1.09-1.65c.25-.59.37-1.28.37-2.07,0-1.63-.51-2.95-1.54-3.96-1.02-1.01-2.42-1.52-4.2-1.52-.94,0-1.74.15-2.4.44-.67.3-1.25.7-1.74,1.22-.54.57-.93,1.25-1.17,2.05-.23.8-.35,1.88-.35,3.24h-3.44c0-1.7.22-3.12.65-4.25.43-1.13,1.05-2.11,1.87-2.92.86-.84,1.89-1.46,3.07-1.87,1.18-.41,2.45-.61,3.81-.61s2.55.2,3.64.61c1.1.41,2.03.97,2.79,1.68.76.72,1.36,1.57,1.78,2.57.42,1,.63,2.09.63,3.27,0,1.26-.2,2.33-.61,3.22-.41.89-.96,1.67-1.65,2.35-.69.68-1.5,1.29-2.44,1.85-.94.55-1.94,1.13-3,1.72-.72.4-1.46.83-2.24,1.29-.78.47-1.5.98-2.18,1.54-.68.55-1.28,1.15-1.79,1.78s-.86,1.31-1.04,2.05h14.39v3.11h-18.35c.07-1.78.42-3.29,1.04-4.53Z"/>
    <path class="cls-2" d="M90.38,415.55v3.66h-3.59v-3.66h3.59Z"/>
    <path class="cls-2" d="M120.77,418.71c-1.53-.68-2.83-1.63-3.9-2.85-1.07-1.22-1.91-2.68-2.5-4.37-.59-1.69-.89-3.53-.89-5.53s.28-3.76.85-5.44c.57-1.68,1.39-3.13,2.46-4.37,1.07-1.23,2.39-2.21,3.94-2.92,1.55-.71,3.32-1.07,5.29-1.07,1.55,0,2.95.21,4.18.63,1.23.42,2.29,1.01,3.18,1.76.89.75,1.61,1.65,2.16,2.68.56,1.04.92,2.16,1.09,3.37h-3.26c-.32-1.65-1.12-2.99-2.39-4.01-1.27-1.02-2.95-1.54-5.05-1.54-1.46,0-2.74.28-3.87.83-1.12.56-2.07,1.32-2.85,2.29-.78.98-1.36,2.13-1.76,3.46-.4,1.33-.59,2.78-.59,4.33s.22,3.11.65,4.44c.43,1.33,1.04,2.47,1.83,3.42.79.95,1.75,1.68,2.87,2.2,1.12.52,2.37.78,3.76.78,1.26,0,2.35-.2,3.27-.59.92-.39,1.7-.92,2.33-1.59.63-.67,1.12-1.44,1.46-2.33.34-.89.55-1.81.63-2.78h3.29c-.02,1.33-.33,2.67-.91,4.01-.58,1.34-1.34,2.49-2.28,3.42-1.9,1.85-4.54,2.77-7.92,2.77-1.88,0-3.58-.34-5.11-1.02Z"/>
    <path class="cls-2" d="M143.38,392.76v26.46h-3v-26.46h3Z"/>
    <path class="cls-2" d="M150.55,392.76v3.7h-3v-3.7h3ZM150.55,400.08v19.13h-3v-19.13h3Z"/>
    <path class="cls-2" d="M158.95,418.94c-1.13-.53-2.1-1.25-2.9-2.17-.8-.91-1.42-1.98-1.85-3.2s-.65-2.52-.65-3.9.22-2.68.65-3.9c.43-1.22,1.05-2.29,1.85-3.2.8-.91,1.77-1.63,2.9-2.16,1.13-.53,2.42-.8,3.85-.8,2.27,0,4.11.6,5.53,1.79,1.42,1.2,2.3,2.82,2.65,4.87h-3.03c-.22-1.31-.77-2.33-1.65-3.07-.88-.74-2.04-1.11-3.5-1.11-1.01,0-1.91.2-2.68.59-.78.39-1.42.94-1.94,1.63s-.91,1.49-1.17,2.41c-.26.91-.39,1.9-.39,2.96s.13,2.05.39,2.96c.26.91.65,1.71,1.17,2.39.52.68,1.17,1.22,1.94,1.61.78.39,1.67.59,2.68.59,1.55,0,2.78-.42,3.68-1.26.9-.84,1.41-2,1.54-3.48h2.96c-.2,2.32-1.01,4.11-2.44,5.37s-3.34,1.89-5.73,1.89c-1.43,0-2.71-.27-3.85-.79Z"/>
    <path class="cls-2" d="M176.82,411.55v7.66h-3v-26.46h3v15.5l8.4-8.18h3.81l-7.33,6.88,8.21,12.25h-3.51l-6.77-10.32-2.81,2.66Z"/>
    <path class="cls-2" d="M198.23,393.81c.6-.63,1.34-1,2.2-1.13v1.41c-.42.17-.76.46-1.02.87-.26.41-.39,1.01-.39,1.79h1.44v3.7h-3.15v-3.7c0-1.33.3-2.31.91-2.94ZM203.81,393.81c.6-.63,1.34-1,2.2-1.13v1.41c-.42.17-.76.46-1.02.87-.26.41-.39,1.01-.39,1.79h1.44v3.7h-3.15v-3.7c0-1.33.3-2.31.91-2.94Z"/>
    <path class="cls-2" d="M228.77,392.76v2.92h-15.35v8.36h13.95v2.81h-13.95v9.29h15.8v3.07h-19.13v-26.46h18.69Z"/>
    <path class="cls-2" d="M235.73,402.6c.69-.91,1.52-1.63,2.5-2.16.97-.53,2.16-.8,3.57-.8,2,0,3.57.52,4.72,1.57,1.15,1.05,1.72,2.57,1.72,4.57v13.43h-3v-13.17c0-1.26-.38-2.22-1.15-2.89s-1.83-1-3.18-1c-.77,0-1.47.13-2.11.39s-1.2.62-1.66,1.07c-.47.46-.83,1.01-1.09,1.67-.26.65-.39,1.38-.39,2.16v11.77h-3v-19.13h3v2.52h.07Z"/>
    <path class="cls-2" d="M255.26,403.27c.57-.94,1.34-1.74,2.31-2.4.97-.67,2.1-1,3.39-1,.27,0,.49.02.67.06.17.04.36.09.55.17v2.89h-.11c-.22-.07-.43-.12-.61-.15-.19-.02-.43-.04-.72-.04-.74,0-1.44.14-2.11.41-.67.27-1.26.65-1.78,1.15-.52.49-.92,1.1-1.22,1.83-.3.73-.44,1.54-.44,2.42v10.62h-3v-19.13h3v3.18h.07Z"/>
    <path class="cls-2" d="M268.47,418.94c-1.13-.53-2.1-1.25-2.9-2.17-.8-.91-1.42-1.98-1.85-3.2s-.65-2.52-.65-3.9.22-2.68.65-3.9c.43-1.22,1.05-2.29,1.85-3.2.8-.91,1.77-1.63,2.9-2.16,1.13-.53,2.42-.8,3.85-.8s2.71.27,3.85.8c1.13.53,2.1,1.25,2.9,2.16.8.91,1.41,1.98,1.83,3.2.42,1.22.63,2.52.63,3.9s-.21,2.68-.63,3.9-1.03,2.29-1.83,3.2c-.8.91-1.77,1.63-2.9,2.17-1.13.53-2.42.79-3.85.79s-2.71-.27-3.85-.79ZM274.98,416.62c.76-.39,1.41-.93,1.92-1.61.52-.68.91-1.47,1.17-2.39.26-.91.39-1.9.39-2.96s-.13-2.05-.39-2.96c-.26-.91-.65-1.71-1.17-2.41-.52-.69-1.16-1.23-1.92-1.63-.76-.39-1.65-.59-2.66-.59s-1.91.2-2.68.59c-.78.39-1.42.94-1.94,1.63s-.91,1.49-1.17,2.41c-.26.91-.39,1.9-.39,2.96s.13,2.05.39,2.96c.26.91.65,1.71,1.17,2.39.52.68,1.17,1.22,1.94,1.61.78.39,1.67.59,2.68.59s1.9-.2,2.66-.59Z"/>
    <path class="cls-2" d="M287.64,392.76v26.46h-3v-26.46h3Z"/>
    <path class="cls-2" d="M294.93,392.76v26.46h-3v-26.46h3Z"/>
    <path class="cls-2" d="M300.86,399.4c-.6.63-1.34,1.01-2.2,1.13v-1.41c.42-.17.76-.46,1.02-.87.26-.41.39-1,.39-1.79h-1.44v-3.7h3.15v3.7c0,1.33-.3,2.31-.91,2.94ZM306.45,399.4c-.6.63-1.34,1.01-2.2,1.13v-1.41c.42-.17.76-.46,1.02-.87.26-.41.39-1,.39-1.79h-1.44v-3.7h3.15v3.7c0,1.33-.3,2.31-.91,2.94Z"/>
    <path class="cls-2" d="M320.69,419.99c-.65-1.23-1.22-2.53-1.7-3.9-.48-1.37-.86-2.82-1.15-4.35-.28-1.53-.43-3.17-.43-4.92,0-1.6.15-3.13.44-4.59.3-1.45.7-2.82,1.2-4.11.51-1.28,1.08-2.49,1.72-3.63.64-1.13,1.32-2.2,2.03-3.18h2.44c-1.23,2.1-2.26,4.44-3.09,7.03-.83,2.59-1.24,5.42-1.24,8.47,0,1.63.09,3.18.28,4.66.19,1.48.46,2.9.83,4.27s.83,2.7,1.37,3.98c.54,1.28,1.16,2.57,1.85,3.85h-2.44c-.76-1.16-1.47-2.36-2.13-3.59Z"/>
    <path class="cls-2" d="M333.77,419.05c-.96-.48-1.84-1.26-2.63-2.35h-.07v2.52h-3v-26.46h3v10.06h.07c.72-.99,1.57-1.76,2.55-2.33.99-.57,2.18-.85,3.59-.85,1.21,0,2.31.23,3.31.68,1,.46,1.86,1.11,2.57,1.96.72.85,1.27,1.91,1.67,3.16.39,1.26.59,2.68.59,4.26s-.19,2.92-.56,4.16c-.37,1.25-.91,2.31-1.63,3.18-.72.88-1.59,1.55-2.61,2.02-1.02.47-2.18.7-3.46.7s-2.44-.24-3.4-.72ZM339.34,416.68c.68-.38,1.24-.91,1.68-1.57.44-.67.78-1.46,1-2.37.22-.91.33-1.91.33-3s-.11-2.05-.33-2.98c-.22-.92-.55-1.73-1-2.4-.44-.68-1-1.21-1.67-1.59-.67-.38-1.46-.57-2.37-.57-1.04,0-1.94.2-2.72.59-.78.4-1.41.94-1.91,1.63-.49.69-.86,1.49-1.11,2.4-.25.91-.37,1.89-.37,2.92,0,1.09.12,2.08.37,3,.25.91.62,1.7,1.13,2.37.5.67,1.14,1.19,1.91,1.57.76.38,1.65.57,2.66.57.91,0,1.71-.19,2.39-.57Z"/>
    <path class="cls-2" d="M352.7,418.94c-1.15-.53-2.12-1.25-2.9-2.17-.79-.91-1.39-1.98-1.81-3.2s-.63-2.52-.63-3.9.22-2.68.65-3.9c.43-1.22,1.05-2.29,1.85-3.2.8-.91,1.76-1.63,2.87-2.16,1.11-.53,2.34-.8,3.7-.8,1.43,0,2.69.27,3.79.8,1.1.53,2.02,1.27,2.76,2.22.74.95,1.3,2.08,1.68,3.4s.57,2.77.57,4.35h-14.8c.05.96.22,1.86.52,2.7.3.84.7,1.57,1.22,2.18s1.15,1.1,1.89,1.44c.74.35,1.59.52,2.55.52,1.41,0,2.55-.33,3.44-.98.89-.65,1.5-1.63,1.85-2.94h2.92c-.44,2.07-1.38,3.66-2.81,4.77-1.43,1.11-3.23,1.67-5.4,1.67-1.46,0-2.76-.27-3.9-.79ZM354.05,402.43c-.69.31-1.28.74-1.76,1.29-.48.55-.88,1.21-1.18,1.96-.31.75-.51,1.56-.61,2.42h11.51c-.1-1.92-.62-3.43-1.57-4.51-.95-1.08-2.29-1.63-4.01-1.63-.89,0-1.68.15-2.37.46Z"/>
    <path class="cls-2" d="M371.25,392.76v26.46h-3v-26.46h3Z"/>
    <path class="cls-2" d="M379.76,418.94c-1.13-.53-2.1-1.25-2.9-2.17-.8-.91-1.42-1.98-1.85-3.2s-.65-2.52-.65-3.9.22-2.68.65-3.9c.43-1.22,1.05-2.29,1.85-3.2.8-.91,1.77-1.63,2.9-2.16,1.13-.53,2.42-.8,3.85-.8s2.71.27,3.85.8c1.13.53,2.1,1.25,2.9,2.16.8.91,1.41,1.98,1.83,3.2.42,1.22.63,2.52.63,3.9s-.21,2.68-.63,3.9-1.03,2.29-1.83,3.2c-.8.91-1.77,1.63-2.9,2.17-1.13.53-2.42.79-3.85.79s-2.71-.27-3.85-.79ZM386.28,416.62c.76-.39,1.41-.93,1.92-1.61.52-.68.91-1.47,1.17-2.39.26-.91.39-1.9.39-2.96s-.13-2.05-.39-2.96c-.26-.91-.65-1.71-1.17-2.41-.52-.69-1.16-1.23-1.92-1.63-.76-.39-1.65-.59-2.66-.59s-1.91.2-2.68.59c-.78.39-1.42.94-1.94,1.63s-.91,1.49-1.17,2.41c-.26.91-.39,1.9-.39,2.96s.13,2.05.39,2.96c.26.91.65,1.71,1.17,2.39.52.68,1.17,1.22,1.94,1.61.78.39,1.67.59,2.68.59s1.9-.2,2.66-.59Z"/>
    <path class="cls-2" d="M396.78,400.08l3.37,11.8c.12.42.23.86.33,1.33.1.47.21.91.33,1.33.1.47.22.95.37,1.44h.07c.12-.49.23-.97.33-1.44.1-.42.2-.86.3-1.31.1-.46.21-.88.33-1.28l3.22-11.88h3.14l3.11,11.88c.1.39.2.82.31,1.28.11.46.22.89.31,1.31.1.47.2.95.3,1.44h.07c.12-.49.25-.97.37-1.44.12-.42.24-.86.35-1.33.11-.47.23-.91.35-1.33l3.55-11.8h3.11l-6.25,19.13h-3.07l-3.18-11.58c-.12-.39-.23-.82-.33-1.28s-.2-.89-.3-1.31l-.3-1.41h-.07c-.12.47-.23.94-.33,1.41-.1.42-.2.86-.3,1.31s-.21.88-.33,1.28l-3.22,11.58h-3.11l-6.07-19.13h3.22Z"/>
    <path class="cls-2" d="M422.5,419.73c.54-1.28,1-2.61,1.37-3.98s.65-2.79.83-4.27c.18-1.48.28-3.03.28-4.66,0-3.06-.41-5.88-1.24-8.47-.83-2.59-1.86-4.93-3.09-7.03h2.44c.69.99,1.36,2.05,2.02,3.18.65,1.13,1.23,2.34,1.74,3.63.5,1.28.91,2.65,1.2,4.11.3,1.46.44,2.99.44,4.59,0,1.75-.14,3.39-.43,4.92-.28,1.53-.67,2.98-1.15,4.35-.48,1.37-1.05,2.67-1.7,3.9-.65,1.23-1.36,2.43-2.13,3.59h-2.44c.69-1.28,1.31-2.57,1.85-3.85Z"/>
    <path class="cls-2" d="M436.3,415.55v3.66h-3.59v-3.66h3.59Z"/>
    <path class="cls-2" d="M71.16,463.56c-1.27-.41-2.38-1-3.33-1.78-.95-.78-1.7-1.75-2.26-2.9-.55-1.16-.85-2.49-.87-4h3.22c.07,2.15.75,3.77,2.02,4.88,1.27,1.11,3,1.67,5.2,1.67,1.82,0,3.32-.44,4.48-1.33,1.16-.89,1.74-2.28,1.74-4.18,0-1.7-.59-2.98-1.78-3.83-1.18-.85-2.9-1.28-5.14-1.28h-1.67v-2.55h1.63c2.07,0,3.61-.4,4.62-1.2,1.01-.8,1.52-1.92,1.52-3.35,0-.72-.15-1.36-.44-1.92-.3-.57-.7-1.04-1.22-1.42s-1.12-.68-1.81-.89c-.69-.21-1.43-.31-2.22-.31-1.92,0-3.42.55-4.48,1.65-1.06,1.1-1.59,2.57-1.59,4.42h-3.18c0-1.31.22-2.49.65-3.55s1.05-1.97,1.87-2.74,1.79-1.35,2.94-1.76c1.15-.41,2.45-.61,3.9-.61,1.23,0,2.39.16,3.46.48,1.07.32,2,.79,2.79,1.41.79.62,1.41,1.38,1.87,2.28.46.9.68,1.93.68,3.09,0,1.48-.41,2.67-1.22,3.57-.81.9-1.86,1.56-3.15,1.98v.11c1.87.49,3.24,1.31,4.09,2.46.85,1.15,1.28,2.58,1.28,4.31,0,1.26-.25,2.38-.74,3.37s-1.17,1.81-2.02,2.48-1.86,1.18-3.02,1.54c-1.16.36-2.4.54-3.74.54-1.46,0-2.82-.2-4.09-.61Z"/>
    <path class="cls-2" d="M91.19,459.95v3.66h-3.59v-3.66h3.59Z"/>
    <path class="cls-2" d="M132.42,437.16v2.92h-14.61v8.25h12.17v2.81h-12.17v12.47h-3.33v-26.46h17.94Z"/>
    <path class="cls-2" d="M138.42,437.16v3.7h-3v-3.7h3ZM138.42,444.48v19.13h-3v-19.13h3Z"/>
    <path class="cls-2" d="M145.6,437.16v26.46h-3v-26.46h3Z"/>
    <path class="cls-2" d="M152.88,437.16v26.46h-3v-26.46h3Z"/>
    <path class="cls-2" d="M167.28,463.33c-1.13-.53-2.1-1.25-2.9-2.16-.8-.91-1.42-1.98-1.85-3.2-.43-1.22-.65-2.52-.65-3.9s.22-2.68.65-3.9,1.05-2.29,1.85-3.2c.8-.91,1.77-1.63,2.9-2.17,1.13-.53,2.42-.79,3.85-.79s2.71.26,3.85.79c1.13.53,2.1,1.25,2.9,2.17.8.91,1.41,1.98,1.83,3.2s.63,2.52.63,3.9-.21,2.68-.63,3.9c-.42,1.22-1.03,2.29-1.83,3.2-.8.91-1.77,1.63-2.9,2.16-1.13.53-2.42.8-3.85.8s-2.71-.27-3.85-.8ZM173.79,461.02c.76-.39,1.41-.93,1.92-1.61.52-.68.91-1.47,1.17-2.39.26-.91.39-1.9.39-2.96s-.13-2.05-.39-2.96c-.26-.91-.65-1.71-1.17-2.41-.52-.69-1.16-1.23-1.92-1.63-.76-.39-1.65-.59-2.66-.59s-1.91.2-2.68.59c-.78.4-1.42.94-1.94,1.63-.52.69-.91,1.49-1.17,2.41-.26.91-.39,1.9-.39,2.96s.13,2.05.39,2.96c.26.91.65,1.71,1.17,2.39.52.68,1.17,1.21,1.94,1.61.78.39,1.67.59,2.68.59s1.9-.2,2.66-.59Z"/>
    <path class="cls-2" d="M195.51,460.99h-.07c-.69.94-1.47,1.68-2.35,2.24-.88.56-2.02.83-3.42.83-1.97,0-3.54-.55-4.7-1.67-1.16-1.11-1.74-2.66-1.74-4.66v-13.25h3v13.17c0,1.26.38,2.23,1.13,2.9.75.68,1.81,1.02,3.16,1.02.76,0,1.46-.13,2.07-.41.62-.27,1.14-.65,1.57-1.13.43-.48.76-1.04,1-1.68.23-.64.35-1.34.35-2.11v-11.77h3v19.13h-3v-2.63Z"/>
    <path class="cls-2" d="M204.13,444.48v-6.03h3v6.03h3.7v2.44h-3.7v12.43c0,.67.17,1.13.5,1.39s.81.39,1.42.39c.3,0,.59-.03.89-.09s.53-.12.7-.17h.11v2.59c-.35.07-.72.14-1.13.18s-.83.07-1.28.07c-1.23,0-2.25-.28-3.03-.83-.79-.55-1.18-1.51-1.18-2.87v-13.1h-2.77v-2.44h2.77Z"/>
    <path class="cls-2" d="M221.37,444.48v-6.03h3v6.03h3.7v2.44h-3.7v12.43c0,.67.17,1.13.5,1.39s.81.39,1.42.39c.3,0,.59-.03.89-.09s.53-.12.7-.17h.11v2.59c-.35.07-.72.14-1.13.18s-.83.07-1.28.07c-1.23,0-2.25-.28-3.03-.83-.79-.55-1.18-1.51-1.18-2.87v-13.1h-2.77v-2.44h2.77Z"/>
    <path class="cls-2" d="M234.25,447c.69-.91,1.52-1.63,2.5-2.17.97-.53,2.16-.8,3.57-.8,2,0,3.57.52,4.72,1.57s1.72,2.57,1.72,4.57v13.43h-3v-13.17c0-1.26-.38-2.22-1.15-2.89s-1.83-1-3.18-1c-.77,0-1.47.13-2.11.39-.64.26-1.2.62-1.66,1.07-.47.46-.83,1.01-1.09,1.67-.26.65-.39,1.38-.39,2.17v11.77h-3v-26.46h3v9.84h.07Z"/>
    <path class="cls-2" d="M254.98,463.33c-1.15-.53-2.12-1.25-2.9-2.16-.79-.91-1.39-1.98-1.81-3.2-.42-1.22-.63-2.52-.63-3.9s.22-2.68.65-3.9,1.05-2.29,1.85-3.2c.8-.91,1.76-1.63,2.87-2.17,1.11-.53,2.34-.79,3.7-.79,1.43,0,2.69.26,3.79.79,1.1.53,2.02,1.27,2.76,2.22.74.95,1.3,2.08,1.68,3.4.38,1.32.57,2.77.57,4.35h-14.8c.05.96.22,1.86.52,2.7.3.84.7,1.57,1.22,2.18.52.62,1.15,1.1,1.89,1.44.74.35,1.59.52,2.55.52,1.41,0,2.55-.33,3.44-.98.89-.65,1.5-1.63,1.85-2.94h2.92c-.44,2.07-1.38,3.66-2.81,4.77-1.43,1.11-3.23,1.67-5.4,1.67-1.46,0-2.76-.27-3.9-.8ZM256.33,446.83c-.69.31-1.28.74-1.76,1.29s-.88,1.21-1.18,1.96c-.31.75-.51,1.56-.61,2.42h11.51c-.1-1.92-.62-3.43-1.57-4.51-.95-1.09-2.29-1.63-4.01-1.63-.89,0-1.68.16-2.37.46Z"/>
    <path class="cls-2" d="M279.38,447.67c.57-.94,1.34-1.74,2.31-2.41.97-.67,2.1-1,3.39-1,.27,0,.49.02.67.06.17.04.36.09.55.17v2.89h-.11c-.22-.07-.43-.12-.61-.15-.19-.02-.43-.04-.72-.04-.74,0-1.44.14-2.11.41s-1.26.65-1.78,1.15c-.52.49-.92,1.1-1.22,1.83s-.44,1.54-.44,2.42v10.62h-3v-19.13h3v3.18h.07Z"/>
    <path class="cls-2" d="M292.54,463.33c-1.15-.53-2.12-1.25-2.9-2.16-.79-.91-1.39-1.98-1.81-3.2-.42-1.22-.63-2.52-.63-3.9s.22-2.68.65-3.9,1.05-2.29,1.85-3.2c.8-.91,1.76-1.63,2.87-2.17,1.11-.53,2.34-.79,3.7-.79,1.43,0,2.69.26,3.79.79,1.1.53,2.02,1.27,2.76,2.22.74.95,1.3,2.08,1.68,3.4.38,1.32.57,2.77.57,4.35h-14.8c.05.96.22,1.86.52,2.7.3.84.7,1.57,1.22,2.18.52.62,1.15,1.1,1.89,1.44.74.35,1.59.52,2.55.52,1.41,0,2.55-.33,3.44-.98.89-.65,1.5-1.63,1.85-2.94h2.92c-.44,2.07-1.38,3.66-2.81,4.77-1.43,1.11-3.23,1.67-5.4,1.67-1.46,0-2.76-.27-3.9-.8ZM293.89,446.83c-.69.31-1.28.74-1.76,1.29s-.88,1.21-1.18,1.96c-.31.75-.51,1.56-.61,2.42h11.51c-.1-1.92-.62-3.43-1.57-4.51-.95-1.09-2.29-1.63-4.01-1.63-.89,0-1.68.16-2.37.46Z"/>
    <path class="cls-2" d="M309.82,468.57c-1.37-.94-2.14-2.23-2.31-3.88h2.77c.15,1.06.69,1.81,1.63,2.26.94.44,2.15.67,3.63.67,1.78,0,3.13-.4,4.07-1.2.94-.8,1.41-2.04,1.41-3.72v-2.7h-.07c-.72.91-1.49,1.63-2.33,2.17-.84.53-1.95.79-3.33.79-1.23,0-2.36-.23-3.39-.7-1.02-.47-1.91-1.12-2.65-1.96-.74-.84-1.31-1.84-1.72-3-.41-1.16-.61-2.43-.61-3.81,0-1.48.22-2.81.65-3.98.43-1.17,1.02-2.16,1.78-2.98.75-.81,1.62-1.43,2.61-1.85.99-.42,2.03-.63,3.15-.63,1.41,0,2.57.25,3.5.76.92.51,1.71,1.22,2.35,2.13h.07v-2.44h3v18.09c0,1.26-.2,2.35-.59,3.27-.39.93-.96,1.7-1.7,2.31-.74.62-1.63,1.07-2.66,1.37-1.04.3-2.18.44-3.44.44-2.49,0-4.42-.47-5.79-1.41ZM318.2,459.89c.74-.36,1.33-.86,1.78-1.5.44-.64.76-1.39.96-2.26.2-.86.3-1.8.3-2.81,0-2.1-.46-3.75-1.39-4.96-.93-1.21-2.41-1.81-4.46-1.81-1.8,0-3.15.64-4.05,1.92-.9,1.28-1.35,2.96-1.35,5.03s.46,3.77,1.39,5.03c.93,1.26,2.28,1.89,4.05,1.89,1.11,0,2.03-.18,2.77-.54Z"/>
    <path class="cls-2" d="M331.07,437.16v3.7h-3v-3.7h3ZM331.07,444.48v19.13h-3v-19.13h3Z"/>
    <path class="cls-2" d="M336.29,462.41c-1.43-1.17-2.22-2.84-2.37-5.01h3.07c.1.84.31,1.53.63,2.07.32.54.72.97,1.2,1.29s1.03.55,1.65.68,1.28.2,2,.2c1.58,0,2.71-.3,3.4-.91.69-.6,1.04-1.35,1.04-2.24,0-.54-.09-.99-.28-1.35s-.48-.66-.89-.91c-.41-.25-.93-.46-1.55-.63-.63-.17-1.39-.36-2.28-.55-.94-.2-1.84-.41-2.7-.63-.86-.22-1.62-.54-2.28-.94-.65-.41-1.18-.94-1.57-1.61s-.59-1.52-.59-2.55c0-1.6.59-2.88,1.76-3.83,1.17-.95,2.88-1.42,5.12-1.42,2.39,0,4.19.53,5.38,1.59,1.2,1.06,1.91,2.53,2.13,4.4h-3.07c-.15-1.26-.58-2.18-1.29-2.76-.72-.58-1.79-.87-3.22-.87s-2.37.27-2.96.8c-.59.53-.89,1.18-.89,1.94,0,.52.11.94.33,1.28s.56.61,1,.83c.44.22.99.41,1.63.55.64.15,1.37.31,2.18.48.96.2,1.87.41,2.72.65.85.24,1.6.57,2.26,1,.65.43,1.17.99,1.54,1.68.37.69.56,1.59.56,2.7,0,.96-.19,1.81-.56,2.53-.37.73-.89,1.33-1.55,1.81s-1.46.84-2.39,1.09c-.92.25-1.94.37-3.05.37-2.64,0-4.67-.59-6.1-1.76Z"/>
    <path class="cls-2" d="M354.01,444.48v-6.03h3v6.03h3.7v2.44h-3.7v12.43c0,.67.17,1.13.5,1.39s.81.39,1.42.39c.3,0,.59-.03.89-.09s.53-.12.7-.17h.11v2.59c-.35.07-.72.14-1.13.18s-.83.07-1.28.07c-1.23,0-2.25-.28-3.03-.83-.79-.55-1.18-1.51-1.18-2.87v-13.1h-2.77v-2.44h2.77Z"/>
    <path class="cls-2" d="M366.89,447.67c.57-.94,1.34-1.74,2.31-2.41.97-.67,2.1-1,3.39-1,.27,0,.49.02.67.06.17.04.36.09.55.17v2.89h-.11c-.22-.07-.43-.12-.61-.15-.19-.02-.43-.04-.72-.04-.74,0-1.44.14-2.11.41s-1.26.65-1.78,1.15c-.52.49-.92,1.1-1.22,1.83s-.44,1.54-.44,2.42v10.62h-3v-19.13h3v3.18h.07Z"/>
    <path class="cls-2" d="M387.5,460.95h-.04c-.3.37-.64.73-1.04,1.09-.4.36-.85.68-1.37.98-.52.3-1.1.53-1.76.7-.65.17-1.39.26-2.2.26-.91,0-1.76-.11-2.55-.31-.79-.21-1.47-.54-2.05-.98s-1.04-1-1.37-1.67-.5-1.46-.5-2.37c0-1.13.21-2.06.63-2.77.42-.72,1-1.29,1.74-1.74.74-.44,1.62-.78,2.65-1.02,1.02-.23,2.13-.45,3.31-.65.67-.1,1.28-.2,1.85-.31.57-.11,1.05-.26,1.46-.44.41-.18.72-.43.94-.74.22-.31.33-.72.33-1.24,0-1.08-.37-1.92-1.11-2.5-.74-.58-1.8-.87-3.18-.87-1.55,0-2.73.34-3.51,1.02-.79.68-1.21,1.75-1.26,3.2h-2.89c.02-.91.2-1.77.52-2.57.32-.8.8-1.49,1.42-2.05s1.42-1.02,2.37-1.35c.95-.33,2.05-.5,3.31-.5,1.01,0,1.95.11,2.81.31.86.21,1.61.55,2.24,1.02.63.47,1.12,1.09,1.48,1.87.36.78.54,1.73.54,2.87v9.1c0,.79.13,1.38.39,1.76.26.38.81.48,1.65.28h.11v2.18c-.2.07-.42.14-.67.2-.25.06-.57.09-.96.09-1.9,0-3-.95-3.29-2.85ZM384.35,461.19c.74-.33,1.34-.75,1.81-1.24.47-.49.82-1.04,1.05-1.65.23-.6.35-1.19.35-1.76v-3.26c-.49.32-1.14.6-1.94.83-.8.23-1.61.43-2.42.57-.74.15-1.44.3-2.11.44-.67.15-1.24.36-1.72.65-.48.28-.86.65-1.15,1.09-.28.44-.43,1.01-.43,1.7,0,.64.12,1.17.35,1.57.23.41.54.72.91.94s.79.38,1.26.46c.47.09.95.13,1.44.13.99,0,1.85-.17,2.59-.5Z"/>
    <path class="cls-2" d="M395.82,444.48v-6.03h3v6.03h3.7v2.44h-3.7v12.43c0,.67.17,1.13.5,1.39s.81.39,1.42.39c.3,0,.59-.03.89-.09s.53-.12.7-.17h.11v2.59c-.35.07-.72.14-1.13.18s-.83.07-1.28.07c-1.23,0-2.25-.28-3.03-.83-.79-.55-1.18-1.51-1.18-2.87v-13.1h-2.77v-2.44h2.77Z"/>
    <path class="cls-2" d="M408.62,437.16v3.7h-3v-3.7h3ZM408.62,444.48v19.13h-3v-19.13h3Z"/>
    <path class="cls-2" d="M417.02,463.33c-1.13-.53-2.1-1.25-2.9-2.16-.8-.91-1.42-1.98-1.85-3.2-.43-1.22-.65-2.52-.65-3.9s.22-2.68.65-3.9,1.05-2.29,1.85-3.2c.8-.91,1.77-1.63,2.9-2.17,1.13-.53,2.42-.79,3.85-.79s2.71.26,3.85.79c1.13.53,2.1,1.25,2.9,2.17.8.91,1.41,1.98,1.83,3.2.42,1.22.63,2.52.63,3.9s-.21,2.68-.63,3.9c-.42,1.22-1.03,2.29-1.83,3.2-.8.91-1.77,1.63-2.9,2.16s-2.42.8-3.85.8-2.71-.27-3.85-.8ZM423.54,461.02c.76-.39,1.41-.93,1.92-1.61.52-.68.91-1.47,1.17-2.39.26-.91.39-1.9.39-2.96s-.13-2.05-.39-2.96c-.26-.91-.65-1.71-1.17-2.41-.52-.69-1.16-1.23-1.92-1.63-.76-.39-1.65-.59-2.66-.59s-1.91.2-2.68.59c-.78.4-1.42.94-1.94,1.63-.52.69-.91,1.49-1.17,2.41-.26.91-.39,1.9-.39,2.96s.13,2.05.39,2.96c.26.91.65,1.71,1.17,2.39.52.68,1.17,1.21,1.94,1.61s1.67.59,2.68.59,1.9-.2,2.66-.59Z"/>
    <path class="cls-2" d="M436.15,447c.69-.91,1.52-1.63,2.5-2.17.97-.53,2.16-.8,3.57-.8,2,0,3.57.52,4.72,1.57,1.15,1.05,1.72,2.57,1.72,4.57v13.43h-3v-13.17c0-1.26-.38-2.22-1.15-2.89s-1.83-1-3.18-1c-.77,0-1.47.13-2.11.39-.64.26-1.2.62-1.67,1.07-.47.46-.83,1.01-1.09,1.67-.26.65-.39,1.38-.39,2.17v11.77h-3v-19.13h3v2.52h.07Z"/>
    <path class="cls-2" d="M459.91,444.48v-3.07c0-1.65.44-2.81,1.33-3.48.89-.67,2.13-1,3.74-1,.32,0,.6,0,.85.02.25.01.47.03.67.06v2.55c-.27-.02-.46-.04-.57-.04h-.39c-.96,0-1.64.14-2.04.43-.39.28-.59.82-.59,1.61v2.92h3.55v2.44h-3.55v16.69h-3v-16.69h-2.63v-2.44h2.63Z"/>
    <path class="cls-2" d="M473.15,463.33c-1.13-.53-2.1-1.25-2.9-2.16-.8-.91-1.42-1.98-1.85-3.2-.43-1.22-.65-2.52-.65-3.9s.22-2.68.65-3.9,1.05-2.29,1.85-3.2c.8-.91,1.77-1.63,2.9-2.17,1.13-.53,2.42-.79,3.85-.79s2.71.26,3.85.79c1.13.53,2.1,1.25,2.9,2.17.8.91,1.41,1.98,1.83,3.2.42,1.22.63,2.52.63,3.9s-.21,2.68-.63,3.9c-.42,1.22-1.03,2.29-1.83,3.2-.8.91-1.77,1.63-2.9,2.16s-2.42.8-3.85.8-2.71-.27-3.85-.8ZM479.66,461.02c.76-.39,1.41-.93,1.92-1.61.52-.68.91-1.47,1.17-2.39.26-.91.39-1.9.39-2.96s-.13-2.05-.39-2.96c-.26-.91-.65-1.71-1.17-2.41-.52-.69-1.16-1.23-1.92-1.63-.76-.39-1.65-.59-2.66-.59s-1.91.2-2.68.59c-.78.4-1.42.94-1.94,1.63-.52.69-.91,1.49-1.17,2.41-.26.91-.39,1.9-.39,2.96s.13,2.05.39,2.96c.26.91.65,1.71,1.17,2.39.52.68,1.17,1.21,1.94,1.61s1.67.59,2.68.59,1.9-.2,2.66-.59Z"/>
    <path class="cls-2" d="M492.28,447.67c.57-.94,1.34-1.74,2.31-2.41s2.1-1,3.39-1c.27,0,.49.02.67.06.17.04.36.09.55.17v2.89h-.11c-.22-.07-.43-.12-.61-.15-.19-.02-.43-.04-.72-.04-.74,0-1.44.14-2.11.41s-1.26.65-1.78,1.15c-.52.49-.92,1.1-1.22,1.83s-.44,1.54-.44,2.42v10.62h-3v-19.13h3v3.18h.07Z"/>
    <path class="cls-2" d="M504.9,444.48v2.74h.07c.59-.94,1.38-1.7,2.35-2.29s2.07-.89,3.27-.89,2.21.29,3.07.87c.86.58,1.5,1.42,1.92,2.53h.07c.62-1.11,1.45-1.95,2.5-2.53,1.05-.58,2.17-.87,3.35-.87,1.7,0,3.1.52,4.18,1.57,1.08,1.05,1.63,2.57,1.63,4.57v13.43h-3v-13.28c0-1.18-.35-2.11-1.04-2.77-.69-.67-1.52-1-2.48-1-.62,0-1.21.13-1.78.39-.57.26-1.07.62-1.5,1.07-.43.46-.78,1-1.04,1.63-.26.63-.39,1.31-.39,2.05v11.91h-3v-13.28c0-1.18-.3-2.11-.91-2.77s-1.4-1-2.39-1c-.59,0-1.18.13-1.76.39-.58.26-1.1.62-1.57,1.07-.47.46-.85,1-1.15,1.63-.3.63-.44,1.31-.44,2.05v11.91h-3v-19.13h3Z"/>
    <path class="cls-2" d="M534.46,459.95v3.66h-3.59v-3.66h3.59Z"/>
    <path class="cls-2" d="M77.84,493.56l9.77,26.46h-3.63l-2.81-8.07h-10.54l-2.85,8.07h-3.4l9.73-26.46h3.74ZM80.24,509.25l-3.03-8.88c-.12-.37-.25-.77-.39-1.2-.14-.43-.27-.83-.39-1.2-.12-.44-.26-.89-.41-1.33h-.07c-.15.42-.28.85-.41,1.29-.12.37-.26.78-.41,1.22-.15.44-.28.85-.41,1.22l-3.15,8.88h8.66Z"/>
    <path class="cls-2" d="M97.82,493.56l6.51,19.68c.1.32.2.68.31,1.07.11.4.23.78.35,1.15.12.44.25.89.37,1.33h.07c.12-.44.25-.89.37-1.33.12-.37.23-.76.33-1.17.1-.41.21-.76.33-1.05l6.44-19.68h3.48l-9.29,26.46h-3.66l-9.21-26.46h3.59Z"/>
    <path class="cls-2" d="M120.67,519.74c-1.15-.53-2.12-1.25-2.9-2.17-.79-.91-1.39-1.98-1.81-3.2s-.63-2.52-.63-3.9.22-2.68.65-3.9c.43-1.22,1.05-2.29,1.85-3.2.8-.91,1.76-1.63,2.87-2.16,1.11-.53,2.34-.8,3.7-.8,1.43,0,2.69.27,3.79.8s2.02,1.27,2.76,2.22c.74.95,1.3,2.08,1.68,3.4s.57,2.77.57,4.35h-14.8c.05.96.22,1.86.52,2.7.3.84.7,1.57,1.22,2.18.52.62,1.15,1.1,1.89,1.44.74.35,1.59.52,2.55.52,1.41,0,2.55-.33,3.44-.98.89-.65,1.5-1.63,1.85-2.94h2.92c-.44,2.07-1.38,3.66-2.81,4.77-1.43,1.11-3.23,1.67-5.4,1.67-1.46,0-2.76-.26-3.9-.79ZM122.02,503.23c-.69.31-1.28.74-1.76,1.29s-.88,1.21-1.18,1.96c-.31.75-.51,1.56-.61,2.42h11.51c-.1-1.92-.62-3.43-1.57-4.51-.95-1.08-2.29-1.63-4.01-1.63-.89,0-1.68.15-2.37.46Z"/>
    <path class="cls-2" d="M139.18,504.07c.57-.94,1.34-1.74,2.31-2.4.97-.67,2.1-1,3.39-1,.27,0,.49.02.67.05.17.04.36.09.55.17v2.89h-.11c-.22-.07-.43-.12-.61-.15-.19-.02-.43-.04-.72-.04-.74,0-1.44.14-2.11.41-.67.27-1.26.65-1.78,1.15-.52.49-.92,1.1-1.22,1.83-.3.73-.44,1.54-.44,2.42v10.62h-3v-19.13h3v3.18h.07Z"/>
    <path class="cls-2" d="M151.8,493.56v3.7h-3v-3.7h3ZM151.8,500.88v19.13h-3v-19.13h3Z"/>
    <path class="cls-2" d="M165.75,503.62v-.11h-10.03v-2.63h14.21v1.78l-10.99,14.5v.11h11.4v2.74h-15.24v-2.37l10.66-14.02Z"/>
    <path class="cls-2" d="M176.89,519.74c-1.13-.53-2.1-1.25-2.9-2.17-.8-.91-1.42-1.98-1.85-3.2s-.65-2.52-.65-3.9.22-2.68.65-3.9c.43-1.22,1.05-2.29,1.85-3.2.8-.91,1.77-1.63,2.9-2.16,1.13-.53,2.42-.8,3.85-.8s2.71.27,3.85.8c1.13.53,2.1,1.25,2.9,2.16.8.91,1.41,1.98,1.83,3.2.42,1.22.63,2.52.63,3.9s-.21,2.68-.63,3.9-1.03,2.29-1.83,3.2c-.8.91-1.77,1.63-2.9,2.17-1.13.53-2.42.79-3.85.79s-2.71-.26-3.85-.79ZM183.4,517.42c.76-.39,1.41-.93,1.92-1.61.52-.68.91-1.47,1.17-2.39.26-.91.39-1.9.39-2.96s-.13-2.05-.39-2.96c-.26-.91-.65-1.71-1.17-2.41-.52-.69-1.16-1.23-1.92-1.63-.76-.39-1.65-.59-2.66-.59s-1.91.2-2.68.59c-.78.39-1.42.94-1.94,1.63-.52.69-.91,1.49-1.17,2.41-.26.91-.39,1.9-.39,2.96s.13,2.05.39,2.96c.26.91.65,1.71,1.17,2.39s1.17,1.21,1.94,1.61c.78.39,1.67.59,2.68.59s1.9-.2,2.66-.59Z"/>
    <path class="cls-2" d="M196.01,503.4c.69-.91,1.52-1.63,2.5-2.16.97-.53,2.16-.8,3.57-.8,2,0,3.57.52,4.72,1.57,1.15,1.05,1.72,2.57,1.72,4.57v13.43h-3v-13.17c0-1.26-.38-2.22-1.15-2.89s-1.83-1-3.18-1c-.77,0-1.47.13-2.11.39-.64.26-1.2.62-1.66,1.07-.47.46-.83,1.01-1.09,1.67-.26.65-.39,1.38-.39,2.17v11.77h-3v-19.13h3v2.52h.07Z"/>
    <path class="cls-2" d="M221.43,504.07c.57-.94,1.34-1.74,2.31-2.4.97-.67,2.1-1,3.39-1,.27,0,.49.02.67.05.17.04.36.09.55.17v2.89h-.11c-.22-.07-.43-.12-.61-.15-.19-.02-.43-.04-.72-.04-.74,0-1.44.14-2.11.41-.67.27-1.26.65-1.78,1.15-.52.49-.92,1.1-1.22,1.83-.3.73-.44,1.54-.44,2.42v10.62h-3v-19.13h3v3.18h.07Z"/>
    <path class="cls-2" d="M234.59,519.74c-1.15-.53-2.12-1.25-2.9-2.17-.79-.91-1.39-1.98-1.81-3.2s-.63-2.52-.63-3.9.22-2.68.65-3.9c.43-1.22,1.05-2.29,1.85-3.2.8-.91,1.76-1.63,2.87-2.16,1.11-.53,2.34-.8,3.7-.8,1.43,0,2.69.27,3.79.8s2.02,1.27,2.76,2.22c.74.95,1.3,2.08,1.68,3.4s.57,2.77.57,4.35h-14.8c.05.96.22,1.86.52,2.7.3.84.7,1.57,1.22,2.18.52.62,1.15,1.1,1.89,1.44.74.35,1.59.52,2.55.52,1.41,0,2.55-.33,3.44-.98.89-.65,1.5-1.63,1.85-2.94h2.92c-.44,2.07-1.38,3.66-2.81,4.77-1.43,1.11-3.23,1.67-5.4,1.67-1.46,0-2.76-.26-3.9-.79ZM235.94,503.23c-.69.31-1.28.74-1.76,1.29s-.88,1.21-1.18,1.96c-.31.75-.51,1.56-.61,2.42h11.51c-.1-1.92-.62-3.43-1.57-4.51-.95-1.08-2.29-1.63-4.01-1.63-.89,0-1.68.15-2.37.46Z"/>
    <path class="cls-2" d="M253.03,500.88v2.7h.07c.72-.99,1.57-1.76,2.55-2.31.99-.56,2.18-.83,3.59-.83,1.21,0,2.32.23,3.33.68,1.01.46,1.87,1.11,2.59,1.96.72.85,1.28,1.91,1.68,3.16.41,1.26.61,2.68.61,4.25s-.19,2.92-.57,4.16c-.38,1.25-.93,2.31-1.65,3.18-.72.88-1.59,1.55-2.63,2.02-1.04.47-2.2.7-3.48.7s-2.44-.21-3.4-.63-1.84-1.15-2.63-2.18h-.07v8.4h-3v-25.27h3ZM261.32,517.48c.69-.38,1.26-.91,1.72-1.57.46-.67.8-1.46,1.02-2.37.22-.91.33-1.91.33-3s-.11-2.05-.33-2.98c-.22-.93-.56-1.73-1.02-2.41-.46-.68-1.02-1.21-1.7-1.59-.68-.38-1.47-.57-2.39-.57-1.04,0-1.94.2-2.72.59s-1.41.94-1.91,1.63c-.49.69-.86,1.49-1.11,2.41-.25.91-.37,1.89-.37,2.92s.11,2.01.33,2.92c.22.91.57,1.71,1.05,2.39s1.1,1.21,1.87,1.61c.76.39,1.7.59,2.81.59.91,0,1.71-.19,2.4-.57Z"/>
    <path class="cls-2" d="M277.67,500.88l3.37,11.8c.12.42.23.86.33,1.33.1.47.21.91.33,1.33.1.47.22.95.37,1.44h.07c.12-.49.23-.97.33-1.44.1-.42.2-.86.3-1.31.1-.46.21-.88.33-1.28l3.22-11.88h3.15l3.11,11.88c.1.39.2.82.31,1.28.11.46.22.89.31,1.31.1.47.2.95.3,1.44h.07c.12-.49.25-.97.37-1.44.12-.42.24-.86.35-1.33.11-.47.23-.91.35-1.33l3.55-11.8h3.11l-6.25,19.13h-3.07l-3.18-11.58c-.12-.39-.23-.82-.33-1.28-.1-.46-.2-.89-.3-1.31-.1-.47-.2-.94-.3-1.41h-.07c-.12.47-.23.94-.33,1.41-.1.42-.2.86-.3,1.31-.1.46-.21.88-.33,1.28l-3.22,11.58h-3.11l-6.07-19.13h3.22Z"/>
    <path class="cls-2" d="M306.49,493.56v3.7h-3v-3.7h3ZM306.49,500.88v19.13h-3v-19.13h3Z"/>
    <path class="cls-2" d="M313.67,493.56v26.46h-3v-26.46h3Z"/>
    <path class="cls-2" d="M320.96,493.56v26.46h-3v-26.46h3Z"/>
    <path class="cls-2" d="M332.58,500.88v-6.03h3v6.03h3.7v2.44h-3.7v12.43c0,.67.17,1.13.5,1.39.33.26.81.39,1.42.39.3,0,.59-.03.89-.09s.53-.12.7-.17h.11v2.59c-.35.07-.72.14-1.13.19s-.83.07-1.28.07c-1.23,0-2.25-.28-3.03-.83-.79-.55-1.18-1.51-1.18-2.87v-13.1h-2.77v-2.44h2.77Z"/>
    <path class="cls-2" d="M345.45,503.4c.69-.91,1.52-1.63,2.5-2.16.97-.53,2.16-.8,3.57-.8,2,0,3.57.52,4.72,1.57,1.15,1.05,1.72,2.57,1.72,4.57v13.43h-3v-13.17c0-1.26-.38-2.22-1.15-2.89s-1.83-1-3.18-1c-.77,0-1.47.13-2.11.39-.64.26-1.2.62-1.66,1.07-.47.46-.83,1.01-1.09,1.67-.26.65-.39,1.38-.39,2.17v11.77h-3v-26.46h3v9.84h.07Z"/>
    <path class="cls-2" d="M366.19,519.74c-1.15-.53-2.12-1.25-2.9-2.17-.79-.91-1.39-1.98-1.81-3.2s-.63-2.52-.63-3.9.22-2.68.65-3.9c.43-1.22,1.05-2.29,1.85-3.2.8-.91,1.76-1.63,2.87-2.16,1.11-.53,2.34-.8,3.7-.8,1.43,0,2.69.27,3.79.8s2.02,1.27,2.76,2.22c.74.95,1.3,2.08,1.68,3.4s.57,2.77.57,4.35h-14.8c.05.96.22,1.86.52,2.7.3.84.7,1.57,1.22,2.18.52.62,1.15,1.1,1.89,1.44.74.35,1.59.52,2.55.52,1.41,0,2.55-.33,3.44-.98.89-.65,1.5-1.63,1.85-2.94h2.92c-.44,2.07-1.38,3.66-2.81,4.77-1.43,1.11-3.23,1.67-5.4,1.67-1.46,0-2.76-.26-3.9-.79ZM367.54,503.23c-.69.31-1.28.74-1.76,1.29s-.88,1.21-1.18,1.96c-.31.75-.51,1.56-.61,2.42h11.51c-.1-1.92-.62-3.43-1.57-4.51-.95-1.08-2.29-1.63-4.01-1.63-.89,0-1.68.15-2.37.46Z"/>
    <path class="cls-2" d="M384.71,503.4c.69-.91,1.52-1.63,2.5-2.16.97-.53,2.16-.8,3.57-.8,2,0,3.57.52,4.72,1.57,1.15,1.05,1.72,2.57,1.72,4.57v13.43h-3v-13.17c0-1.26-.38-2.22-1.15-2.89s-1.83-1-3.18-1c-.77,0-1.47.13-2.11.39-.64.26-1.2.62-1.66,1.07-.47.46-.83,1.01-1.09,1.67-.26.65-.39,1.38-.39,2.17v11.77h-3v-19.13h3v2.52h.07Z"/>
    <path class="cls-2" d="M411.39,519.74c-1.13-.53-2.1-1.25-2.9-2.17-.8-.91-1.42-1.98-1.85-3.2s-.65-2.52-.65-3.9.22-2.68.65-3.9c.43-1.22,1.05-2.29,1.85-3.2.8-.91,1.77-1.63,2.9-2.16s2.42-.8,3.85-.8c2.27,0,4.11.6,5.53,1.79,1.42,1.2,2.3,2.82,2.65,4.87h-3.03c-.22-1.31-.77-2.33-1.65-3.07-.88-.74-2.04-1.11-3.5-1.11-1.01,0-1.91.2-2.68.59s-1.42.94-1.94,1.63c-.52.69-.91,1.49-1.17,2.41-.26.91-.39,1.9-.39,2.96s.13,2.05.39,2.96c.26.91.65,1.71,1.17,2.39.52.68,1.17,1.21,1.94,1.61s1.67.59,2.68.59c1.55,0,2.78-.42,3.68-1.26.9-.84,1.41-2,1.54-3.48h2.96c-.2,2.32-1.01,4.11-2.44,5.37s-3.34,1.89-5.73,1.89c-1.43,0-2.71-.26-3.85-.79Z"/>
    <path class="cls-2" d="M438.36,517.35h-.04c-.3.37-.64.73-1.04,1.09-.4.36-.85.68-1.37.98s-1.1.53-1.76.7c-.65.17-1.39.26-2.2.26-.91,0-1.76-.11-2.55-.31-.79-.21-1.47-.54-2.05-.98-.58-.44-1.04-1-1.37-1.67s-.5-1.46-.5-2.37c0-1.13.21-2.06.63-2.78.42-.71,1-1.29,1.74-1.74.74-.44,1.62-.78,2.65-1.02s2.13-.45,3.31-.65c.67-.1,1.28-.2,1.85-.31.57-.11,1.05-.26,1.46-.44.41-.18.72-.43.94-.74.22-.31.33-.72.33-1.24,0-1.08-.37-1.92-1.11-2.5-.74-.58-1.8-.87-3.18-.87-1.55,0-2.73.34-3.51,1.02-.79.68-1.21,1.75-1.26,3.2h-2.89c.02-.91.2-1.77.52-2.57.32-.8.8-1.49,1.42-2.05.63-.57,1.42-1.02,2.37-1.35.95-.33,2.05-.5,3.31-.5,1.01,0,1.95.11,2.81.31.86.21,1.61.55,2.24,1.02s1.12,1.09,1.48,1.87c.36.78.54,1.73.54,2.87v9.1c0,.79.13,1.38.39,1.76s.81.47,1.65.28h.11v2.18c-.2.07-.42.14-.67.2-.25.06-.57.09-.96.09-1.9,0-3-.95-3.29-2.85ZM435.22,517.59c.74-.33,1.34-.75,1.81-1.24.47-.49.82-1.04,1.05-1.65s.35-1.19.35-1.76v-3.26c-.49.32-1.14.6-1.94.83s-1.61.42-2.42.57c-.74.15-1.44.3-2.11.44-.67.15-1.24.36-1.72.65-.48.28-.86.65-1.15,1.09-.28.44-.43,1.01-.43,1.7,0,.64.12,1.17.35,1.57.23.41.54.72.91.94.37.22.79.38,1.26.46.47.09.95.13,1.44.13.99,0,1.85-.17,2.59-.5Z"/>
    <path class="cls-2" d="M448.61,493.56v26.46h-3v-26.46h3Z"/>
    <path class="cls-2" d="M455.9,493.56v26.46h-3v-26.46h3Z"/>
    <path class="cls-2" d="M467.52,500.88v-6.03h3v6.03h3.7v2.44h-3.7v12.43c0,.67.17,1.13.5,1.39.33.26.81.39,1.42.39.3,0,.59-.03.89-.09s.53-.12.7-.17h.11v2.59c-.35.07-.72.14-1.13.19s-.83.07-1.28.07c-1.23,0-2.25-.28-3.03-.83-.79-.55-1.18-1.51-1.18-2.87v-13.1h-2.77v-2.44h2.77Z"/>
    <path class="cls-2" d="M481.46,519.74c-1.13-.53-2.1-1.25-2.9-2.17-.8-.91-1.42-1.98-1.85-3.2s-.65-2.52-.65-3.9.22-2.68.65-3.9c.43-1.22,1.05-2.29,1.85-3.2.8-.91,1.77-1.63,2.9-2.16,1.13-.53,2.42-.8,3.85-.8s2.71.27,3.85.8c1.13.53,2.1,1.25,2.9,2.16.8.91,1.41,1.98,1.83,3.2.42,1.22.63,2.52.63,3.9s-.21,2.68-.63,3.9c-.42,1.22-1.03,2.29-1.83,3.2-.8.91-1.77,1.63-2.9,2.17-1.13.53-2.42.79-3.85.79s-2.71-.26-3.85-.79ZM487.98,517.42c.76-.39,1.41-.93,1.92-1.61.52-.68.91-1.47,1.17-2.39.26-.91.39-1.9.39-2.96s-.13-2.05-.39-2.96c-.26-.91-.65-1.71-1.17-2.41-.52-.69-1.16-1.23-1.92-1.63s-1.65-.59-2.66-.59-1.91.2-2.68.59c-.78.39-1.42.94-1.94,1.63-.52.69-.91,1.49-1.17,2.41-.26.91-.39,1.9-.39,2.96s.13,2.05.39,2.96c.26.91.65,1.71,1.17,2.39.52.68,1.17,1.21,1.94,1.61.78.39,1.67.59,2.68.59s1.9-.2,2.66-.59Z"/>
    <path class="cls-2" d="M507.27,519.86c-1.05-.47-1.94-1.14-2.66-2.02-.73-.88-1.29-1.94-1.68-3.18-.4-1.25-.59-2.63-.59-4.16s.22-3,.65-4.25c.43-1.26,1.02-2.31,1.78-3.16.75-.85,1.64-1.5,2.66-1.96,1.02-.46,2.13-.68,3.31-.68,1.36,0,2.54.3,3.55.89,1.01.59,1.83,1.34,2.44,2.26h.07v-10.03h3v26.46h-3v-2.33h-.07c-.72.94-1.54,1.65-2.48,2.15s-2.08.74-3.44.74-2.49-.23-3.53-.7ZM513.65,517.48c.76-.38,1.39-.91,1.89-1.57s.86-1.46,1.09-2.37c.23-.91.35-1.91.35-3s-.13-2.13-.39-3.05-.65-1.72-1.17-2.39c-.52-.67-1.16-1.18-1.92-1.55-.77-.37-1.64-.55-2.63-.55-.91,0-1.71.19-2.39.57-.68.38-1.25.91-1.7,1.59-.46.68-.8,1.48-1.04,2.41-.23.92-.35,1.92-.35,2.98s.12,2.08.35,3c.23.91.58,1.7,1.04,2.37.46.67,1.03,1.19,1.72,1.57.69.38,1.49.57,2.4.57,1.06,0,1.97-.19,2.74-.57Z"/>
    <path class="cls-2" d="M526.86,493.56v3.7h-3v-3.7h3ZM526.86,500.88v19.13h-3v-19.13h3Z"/>
    <path class="cls-2" d="M532.08,518.81c-1.43-1.17-2.22-2.84-2.37-5.01h3.07c.1.84.31,1.53.63,2.07.32.54.72.97,1.2,1.29.48.32,1.03.55,1.65.68.62.14,1.28.2,2,.2,1.58,0,2.71-.3,3.4-.91s1.04-1.35,1.04-2.24c0-.54-.09-.99-.28-1.35-.19-.36-.48-.66-.89-.91-.41-.25-.93-.46-1.55-.63-.63-.17-1.39-.36-2.28-.55-.94-.2-1.84-.41-2.7-.63-.86-.22-1.62-.54-2.28-.94-.65-.41-1.18-.94-1.57-1.61-.39-.67-.59-1.52-.59-2.55,0-1.6.58-2.88,1.76-3.83s2.88-1.42,5.12-1.42c2.39,0,4.19.53,5.38,1.59,1.2,1.06,1.91,2.53,2.13,4.4h-3.07c-.15-1.26-.58-2.18-1.29-2.76-.72-.58-1.79-.87-3.22-.87s-2.37.27-2.96.8-.89,1.18-.89,1.94c0,.52.11.94.33,1.28.22.33.55.61,1,.83.44.22.99.41,1.63.56.64.15,1.37.31,2.18.48.96.2,1.87.41,2.72.65.85.24,1.6.57,2.26,1,.65.43,1.17.99,1.54,1.68.37.69.56,1.59.56,2.7,0,.96-.19,1.81-.56,2.53-.37.73-.89,1.33-1.55,1.81-.67.48-1.46.84-2.39,1.09-.92.25-1.94.37-3.05.37-2.64,0-4.67-.58-6.11-1.76Z"/>
    <path class="cls-2" d="M553.32,519.74c-1.13-.53-2.1-1.25-2.9-2.17-.8-.91-1.42-1.98-1.85-3.2s-.65-2.52-.65-3.9.22-2.68.65-3.9c.43-1.22,1.05-2.29,1.85-3.2.8-.91,1.77-1.63,2.9-2.16,1.13-.53,2.42-.8,3.85-.8,2.27,0,4.11.6,5.53,1.79,1.42,1.2,2.3,2.82,2.65,4.87h-3.03c-.22-1.31-.77-2.33-1.65-3.07-.88-.74-2.04-1.11-3.5-1.11-1.01,0-1.91.2-2.68.59-.78.39-1.42.94-1.94,1.63-.52.69-.91,1.49-1.17,2.41-.26.91-.39,1.9-.39,2.96s.13,2.05.39,2.96c.26.91.65,1.71,1.17,2.39.52.68,1.17,1.21,1.94,1.61.78.39,1.67.59,2.68.59,1.55,0,2.78-.42,3.68-1.26s1.41-2,1.54-3.48h2.96c-.2,2.32-1.01,4.11-2.44,5.37s-3.34,1.89-5.74,1.89c-1.43,0-2.71-.26-3.85-.79Z"/>
    <path class="cls-2" d="M580.37,517.39h-.07c-.69.94-1.47,1.68-2.35,2.24-.88.55-2.02.83-3.42.83-1.97,0-3.54-.56-4.7-1.67-1.16-1.11-1.74-2.66-1.74-4.66v-13.25h3v13.17c0,1.26.38,2.23,1.13,2.9.75.68,1.81,1.02,3.16,1.02.76,0,1.46-.13,2.07-.41.62-.27,1.14-.65,1.57-1.13.43-.48.76-1.04,1-1.68s.35-1.34.35-2.11v-11.77h3v19.13h-3v-2.63Z"/>
    <path class="cls-2" d="M588.58,518.81c-1.43-1.17-2.22-2.84-2.37-5.01h3.07c.1.84.31,1.53.63,2.07.32.54.72.97,1.2,1.29.48.32,1.03.55,1.65.68.62.14,1.28.2,2,.2,1.58,0,2.71-.3,3.4-.91s1.04-1.35,1.04-2.24c0-.54-.09-.99-.28-1.35-.19-.36-.48-.66-.89-.91-.41-.25-.93-.46-1.55-.63-.63-.17-1.39-.36-2.28-.55-.94-.2-1.84-.41-2.7-.63-.86-.22-1.62-.54-2.28-.94-.65-.41-1.18-.94-1.57-1.61-.39-.67-.59-1.52-.59-2.55,0-1.6.58-2.88,1.76-3.83s2.88-1.42,5.12-1.42c2.39,0,4.19.53,5.38,1.59,1.2,1.06,1.91,2.53,2.13,4.4h-3.07c-.15-1.26-.58-2.18-1.29-2.76-.72-.58-1.79-.87-3.22-.87s-2.37.27-2.96.8-.89,1.18-.89,1.94c0,.52.11.94.33,1.28.22.33.55.61,1,.83.44.22.99.41,1.63.56.64.15,1.37.31,2.18.48.96.2,1.87.41,2.72.65.85.24,1.6.57,2.26,1,.65.43,1.17.99,1.54,1.68.37.69.56,1.59.56,2.7,0,.96-.19,1.81-.56,2.53-.37.73-.89,1.33-1.55,1.81-.67.48-1.46.84-2.39,1.09-.92.25-1.94.37-3.05.37-2.64,0-4.67-.58-6.11-1.76Z"/>
    <path class="cls-2" d="M606.27,518.81c-1.43-1.17-2.22-2.84-2.37-5.01h3.07c.1.84.31,1.53.63,2.07.32.54.72.97,1.2,1.29.48.32,1.03.55,1.65.68.62.14,1.28.2,2,.2,1.58,0,2.71-.3,3.4-.91.69-.6,1.04-1.35,1.04-2.24,0-.54-.09-.99-.28-1.35-.18-.36-.48-.66-.89-.91-.41-.25-.92-.46-1.55-.63-.63-.17-1.39-.36-2.28-.55-.94-.2-1.84-.41-2.7-.63-.86-.22-1.62-.54-2.28-.94-.65-.41-1.18-.94-1.57-1.61-.39-.67-.59-1.52-.59-2.55,0-1.6.59-2.88,1.76-3.83,1.17-.95,2.88-1.42,5.12-1.42,2.39,0,4.19.53,5.38,1.59,1.2,1.06,1.91,2.53,2.13,4.4h-3.07c-.15-1.26-.58-2.18-1.29-2.76-.72-.58-1.79-.87-3.22-.87s-2.37.27-2.96.8c-.59.53-.89,1.18-.89,1.94,0,.52.11.94.33,1.28.22.33.56.61,1,.83.44.22.99.41,1.63.56.64.15,1.37.31,2.18.48.96.2,1.87.41,2.72.65.85.24,1.6.57,2.26,1,.65.43,1.17.99,1.54,1.68.37.69.55,1.59.55,2.7,0,.96-.18,1.81-.55,2.53-.37.73-.89,1.33-1.55,1.81-.67.48-1.46.84-2.39,1.09-.92.25-1.94.37-3.05.37-2.64,0-4.67-.58-6.1-1.76Z"/>
    <path class="cls-2" d="M629.67,526.27c-.41-.05-.82-.16-1.24-.33v-2.66h.15c.2.12.46.22.8.3s.75.11,1.24.11c.64,0,1.18-.15,1.63-.46.44-.31.85-.93,1.22-1.87l.74-1.89-7.47-18.57h3.26l4.51,11.91c.15.42.3.84.44,1.28.15.43.28.83.41,1.2.15.44.3.86.44,1.26h.07c.12-.39.26-.81.41-1.26.12-.37.26-.77.41-1.2.15-.43.3-.86.44-1.28l4.37-11.91h3.18l-8.18,20.68c-.39.99-.78,1.79-1.17,2.41-.38.62-.79,1.1-1.22,1.46-.43.36-.89.6-1.37.72-.48.12-1.02.19-1.61.19s-1.05-.03-1.46-.07Z"/>
    <path class="cls-2" d="M650.74,519.74c-1.13-.53-2.1-1.25-2.9-2.17-.8-.91-1.42-1.98-1.85-3.2s-.65-2.52-.65-3.9.22-2.68.65-3.9c.43-1.22,1.05-2.29,1.85-3.2.8-.91,1.77-1.63,2.9-2.16s2.42-.8,3.85-.8,2.71.27,3.85.8,2.1,1.25,2.9,2.16c.8.91,1.41,1.98,1.83,3.2.42,1.22.63,2.52.63,3.9s-.21,2.68-.63,3.9c-.42,1.22-1.03,2.29-1.83,3.2-.8.91-1.77,1.63-2.9,2.17s-2.42.79-3.85.79-2.71-.26-3.85-.79ZM657.25,517.42c.76-.39,1.41-.93,1.92-1.61s.91-1.47,1.17-2.39c.26-.91.39-1.9.39-2.96s-.13-2.05-.39-2.96c-.26-.91-.65-1.71-1.17-2.41-.52-.69-1.16-1.23-1.92-1.63-.76-.39-1.65-.59-2.66-.59s-1.91.2-2.68.59-1.42.94-1.94,1.63c-.52.69-.91,1.49-1.17,2.41-.26.91-.39,1.9-.39,2.96s.13,2.05.39,2.96c.26.91.65,1.71,1.17,2.39.52.68,1.17,1.21,1.94,1.61s1.67.59,2.68.59,1.9-.2,2.66-.59Z"/>
    <path class="cls-2" d="M678.97,517.39h-.07c-.69.94-1.47,1.68-2.35,2.24-.88.55-2.02.83-3.42.83-1.97,0-3.54-.56-4.7-1.67-1.16-1.11-1.74-2.66-1.74-4.66v-13.25h3v13.17c0,1.26.38,2.23,1.13,2.9.75.68,1.81,1.02,3.16,1.02.76,0,1.46-.13,2.07-.41.62-.27,1.14-.65,1.57-1.13.43-.48.76-1.04,1-1.68.23-.64.35-1.34.35-2.11v-11.77h3v19.13h-3v-2.63Z"/>
    <path class="cls-2" d="M689.11,504.07c.57-.94,1.34-1.74,2.31-2.4.97-.67,2.1-1,3.39-1,.27,0,.49.02.67.05.17.04.36.09.55.17v2.89h-.11c-.22-.07-.43-.12-.61-.15s-.43-.04-.72-.04c-.74,0-1.44.14-2.11.41-.67.27-1.26.65-1.78,1.15-.52.49-.92,1.1-1.22,1.83-.3.73-.44,1.54-.44,2.42v10.62h-3v-19.13h3v3.18h.07Z"/>
    <path class="cls-2" d="M69.11,547.8c.69-.91,1.52-1.63,2.5-2.16.97-.53,2.16-.8,3.57-.8,2,0,3.57.52,4.72,1.57,1.15,1.05,1.72,2.57,1.72,4.57v13.43h-3v-13.17c0-1.26-.38-2.22-1.15-2.89s-1.83-1-3.18-1c-.77,0-1.47.13-2.11.39-.64.26-1.2.62-1.66,1.07-.47.46-.83,1.01-1.09,1.67-.26.65-.39,1.38-.39,2.17v11.77h-3v-19.13h3v2.52h.07Z"/>
    <path class="cls-2" d="M89.84,564.13c-1.15-.53-2.12-1.25-2.9-2.17-.79-.91-1.39-1.98-1.81-3.2s-.63-2.52-.63-3.9.22-2.68.65-3.9c.43-1.22,1.05-2.29,1.85-3.2.8-.91,1.76-1.63,2.87-2.16,1.11-.53,2.34-.8,3.7-.8,1.43,0,2.69.27,3.79.8s2.02,1.27,2.76,2.22c.74.95,1.3,2.08,1.68,3.4s.57,2.77.57,4.35h-14.8c.05.96.22,1.86.52,2.7.3.84.7,1.57,1.22,2.18.52.62,1.15,1.1,1.89,1.44.74.35,1.59.52,2.55.52,1.41,0,2.55-.33,3.44-.98.89-.65,1.5-1.63,1.85-2.94h2.92c-.44,2.07-1.38,3.66-2.81,4.77-1.43,1.11-3.23,1.67-5.4,1.67-1.46,0-2.76-.26-3.9-.79ZM91.2,547.63c-.69.31-1.28.74-1.76,1.29s-.88,1.21-1.18,1.96c-.31.75-.51,1.56-.61,2.42h11.51c-.1-1.92-.62-3.43-1.57-4.51-.95-1.08-2.29-1.63-4.01-1.63-.89,0-1.68.15-2.37.46Z"/>
    <path class="cls-2" d="M109.57,564.13c-1.15-.53-2.12-1.25-2.9-2.17-.79-.91-1.39-1.98-1.81-3.2s-.63-2.52-.63-3.9.22-2.68.65-3.9c.43-1.22,1.05-2.29,1.85-3.2.8-.91,1.76-1.63,2.87-2.16,1.11-.53,2.34-.8,3.7-.8,1.43,0,2.69.27,3.79.8s2.02,1.27,2.76,2.22c.74.95,1.3,2.08,1.68,3.4s.57,2.77.57,4.35h-14.8c.05.96.22,1.86.52,2.7.3.84.7,1.57,1.22,2.18.52.62,1.15,1.1,1.89,1.44.74.35,1.59.52,2.55.52,1.41,0,2.55-.33,3.44-.98.89-.65,1.5-1.63,1.85-2.94h2.92c-.44,2.07-1.38,3.66-2.81,4.77-1.43,1.11-3.23,1.67-5.4,1.67-1.46,0-2.76-.26-3.9-.79ZM110.92,547.63c-.69.31-1.28.74-1.76,1.29s-.88,1.21-1.18,1.96c-.31.75-.51,1.56-.61,2.42h11.51c-.1-1.92-.62-3.43-1.57-4.51-.95-1.08-2.29-1.63-4.01-1.63-.89,0-1.68.15-2.37.46Z"/>
    <path class="cls-2" d="M128.88,564.26c-1.05-.47-1.94-1.14-2.66-2.02-.73-.88-1.29-1.94-1.68-3.18-.4-1.25-.59-2.63-.59-4.16s.22-3,.65-4.25c.43-1.26,1.02-2.31,1.78-3.16.75-.85,1.64-1.5,2.66-1.96,1.02-.46,2.13-.68,3.31-.68,1.36,0,2.54.3,3.55.89,1.01.59,1.83,1.34,2.44,2.26h.07v-10.03h3v26.46h-3v-2.33h-.07c-.72.94-1.54,1.65-2.48,2.15-.94.49-2.08.74-3.44.74s-2.49-.23-3.53-.7ZM135.26,561.88c.76-.38,1.39-.91,1.89-1.57.49-.67.86-1.46,1.09-2.37.23-.91.35-1.91.35-3s-.13-2.13-.39-3.05c-.26-.92-.65-1.72-1.17-2.39s-1.16-1.18-1.92-1.55c-.77-.37-1.64-.55-2.63-.55-.91,0-1.71.19-2.39.57-.68.38-1.25.91-1.7,1.59-.46.68-.8,1.48-1.04,2.41-.23.92-.35,1.92-.35,2.98s.12,2.08.35,3c.23.91.58,1.7,1.04,2.37.46.67,1.03,1.19,1.72,1.57.69.38,1.49.57,2.4.57,1.06,0,1.97-.19,2.74-.57Z"/>
    <path class="cls-2" d="M146.62,563.21c-1.43-1.17-2.22-2.84-2.37-5.01h3.07c.1.84.31,1.53.63,2.07.32.54.72.97,1.2,1.29s1.03.55,1.65.68,1.28.2,2,.2c1.58,0,2.71-.3,3.4-.91.69-.6,1.04-1.35,1.04-2.24,0-.54-.09-.99-.28-1.35s-.48-.66-.89-.91c-.41-.25-.93-.46-1.55-.63-.63-.17-1.39-.36-2.28-.55-.94-.2-1.84-.41-2.7-.63-.86-.22-1.62-.54-2.28-.94-.65-.41-1.18-.94-1.57-1.61-.39-.67-.59-1.52-.59-2.55,0-1.6.59-2.88,1.76-3.83,1.17-.95,2.88-1.42,5.12-1.42,2.39,0,4.19.53,5.38,1.59,1.2,1.06,1.91,2.53,2.13,4.4h-3.07c-.15-1.26-.58-2.18-1.29-2.76-.72-.58-1.79-.87-3.22-.87s-2.37.27-2.96.8c-.59.53-.89,1.18-.89,1.94,0,.52.11.94.33,1.28s.56.61,1,.83c.44.22.99.41,1.63.56.64.15,1.37.31,2.18.48.96.2,1.87.41,2.72.65.85.24,1.6.57,2.26,1,.65.43,1.17.99,1.54,1.68.37.69.56,1.59.56,2.7,0,.96-.19,1.81-.56,2.53-.37.73-.89,1.33-1.55,1.81-.67.48-1.46.84-2.39,1.09-.92.25-1.94.37-3.05.37-2.64,0-4.67-.58-6.1-1.76Z"/>
    <path class="cls-2" d="M180.77,561.75h-.04c-.3.37-.64.73-1.04,1.09-.4.36-.85.68-1.37.98-.52.3-1.1.53-1.76.7-.65.17-1.39.26-2.2.26-.91,0-1.76-.11-2.55-.31-.79-.21-1.47-.54-2.05-.98-.58-.44-1.04-1-1.37-1.67s-.5-1.46-.5-2.37c0-1.13.21-2.06.63-2.78.42-.71,1-1.29,1.74-1.74.74-.44,1.62-.78,2.65-1.02,1.02-.23,2.13-.45,3.31-.65.67-.1,1.28-.2,1.85-.31.57-.11,1.05-.26,1.46-.44.41-.18.72-.43.94-.74.22-.31.33-.72.33-1.24,0-1.08-.37-1.92-1.11-2.5-.74-.58-1.8-.87-3.18-.87-1.55,0-2.73.34-3.51,1.02-.79.68-1.21,1.75-1.26,3.2h-2.89c.02-.91.2-1.77.52-2.57.32-.8.8-1.49,1.42-2.05.63-.57,1.42-1.02,2.37-1.35.95-.33,2.05-.5,3.31-.5,1.01,0,1.95.11,2.81.31.86.21,1.61.55,2.24,1.02s1.12,1.09,1.48,1.87c.36.78.54,1.73.54,2.87v9.1c0,.79.13,1.38.39,1.76.26.38.81.47,1.65.28h.11v2.18c-.2.07-.42.14-.67.2-.25.06-.57.09-.96.09-1.9,0-3-.95-3.29-2.85ZM177.63,561.99c.74-.33,1.34-.75,1.81-1.24.47-.49.82-1.04,1.05-1.65s.35-1.19.35-1.76v-3.26c-.49.32-1.14.6-1.94.83-.8.23-1.61.42-2.42.57-.74.15-1.44.3-2.11.44-.67.15-1.24.36-1.72.65s-.86.65-1.15,1.09c-.28.44-.43,1.01-.43,1.7,0,.64.12,1.17.35,1.57.23.41.54.72.91.94.37.22.79.38,1.26.46.47.09.95.13,1.44.13.99,0,1.85-.17,2.59-.5Z"/>
    <path class="cls-2" d="M190.98,547.8c.69-.91,1.52-1.63,2.5-2.16.97-.53,2.16-.8,3.57-.8,2,0,3.57.52,4.72,1.57,1.15,1.05,1.72,2.57,1.72,4.57v13.43h-3v-13.17c0-1.26-.38-2.22-1.15-2.89s-1.83-1-3.18-1c-.77,0-1.47.13-2.11.39-.64.26-1.2.62-1.66,1.07-.47.46-.83,1.01-1.09,1.67-.26.65-.39,1.38-.39,2.17v11.77h-3v-19.13h3v2.52h.07Z"/>
    <path class="cls-2" d="M211.31,564.26c-1.05-.47-1.94-1.14-2.66-2.02-.73-.88-1.29-1.94-1.68-3.18-.4-1.25-.59-2.63-.59-4.16s.22-3,.65-4.25c.43-1.26,1.02-2.31,1.78-3.16.75-.85,1.64-1.5,2.66-1.96,1.02-.46,2.13-.68,3.31-.68,1.36,0,2.54.3,3.55.89,1.01.59,1.83,1.34,2.44,2.26h.07v-10.03h3v26.46h-3v-2.33h-.07c-.72.94-1.54,1.65-2.48,2.15-.94.49-2.08.74-3.44.74s-2.49-.23-3.53-.7ZM217.7,561.88c.76-.38,1.39-.91,1.89-1.57.49-.67.86-1.46,1.09-2.37.23-.91.35-1.91.35-3s-.13-2.13-.39-3.05c-.26-.92-.65-1.72-1.17-2.39s-1.16-1.18-1.92-1.55c-.77-.37-1.64-.55-2.63-.55-.91,0-1.71.19-2.39.57-.68.38-1.25.91-1.7,1.59-.46.68-.8,1.48-1.04,2.41-.23.92-.35,1.92-.35,2.98s.12,2.08.35,3c.23.91.58,1.7,1.04,2.37.46.67,1.03,1.19,1.72,1.57.69.38,1.49.57,2.4.57,1.06,0,1.97-.19,2.74-.57Z"/>
    <path class="cls-2" d="M234.94,563.21c-1.43-1.17-2.22-2.84-2.37-5.01h3.07c.1.84.31,1.53.63,2.07.32.54.72.97,1.2,1.29s1.03.55,1.65.68,1.28.2,2,.2c1.58,0,2.71-.3,3.4-.91.69-.6,1.04-1.35,1.04-2.24,0-.54-.09-.99-.28-1.35s-.48-.66-.89-.91c-.41-.25-.93-.46-1.55-.63-.63-.17-1.39-.36-2.28-.55-.94-.2-1.84-.41-2.7-.63-.86-.22-1.62-.54-2.28-.94-.65-.41-1.18-.94-1.57-1.61-.39-.67-.59-1.52-.59-2.55,0-1.6.59-2.88,1.76-3.83,1.17-.95,2.88-1.42,5.12-1.42,2.39,0,4.19.53,5.38,1.59,1.2,1.06,1.91,2.53,2.13,4.4h-3.07c-.15-1.26-.58-2.18-1.29-2.76-.72-.58-1.79-.87-3.22-.87s-2.37.27-2.96.8c-.59.53-.89,1.18-.89,1.94,0,.52.11.94.33,1.28s.56.61,1,.83c.44.22.99.41,1.63.56.64.15,1.37.31,2.18.48.96.2,1.87.41,2.72.65.85.24,1.6.57,2.26,1,.65.43,1.17.99,1.54,1.68.37.69.56,1.59.56,2.7,0,.96-.19,1.81-.56,2.53-.37.73-.89,1.33-1.55,1.81-.67.48-1.46.84-2.39,1.09-.92.25-1.94.37-3.05.37-2.64,0-4.67-.58-6.1-1.76Z"/>
    <path class="cls-2" d="M252.66,545.28v-6.03h3v6.03h3.7v2.44h-3.7v12.43c0,.67.17,1.13.5,1.39.33.26.81.39,1.42.39.3,0,.59-.03.89-.09s.53-.12.7-.17h.11v2.59c-.35.07-.72.14-1.13.19s-.83.07-1.28.07c-1.23,0-2.25-.28-3.03-.83-.79-.55-1.18-1.51-1.18-2.87v-13.1h-2.77v-2.44h2.77Z"/>
    <path class="cls-2" d="M274.2,561.75h-.04c-.3.37-.64.73-1.04,1.09-.4.36-.85.68-1.37.98-.52.3-1.1.53-1.76.7-.65.17-1.39.26-2.2.26-.91,0-1.76-.11-2.55-.31-.79-.21-1.47-.54-2.05-.98-.58-.44-1.04-1-1.37-1.67s-.5-1.46-.5-2.37c0-1.13.21-2.06.63-2.78.42-.71,1-1.29,1.74-1.74.74-.44,1.62-.78,2.65-1.02,1.02-.23,2.13-.45,3.31-.65.67-.1,1.28-.2,1.85-.31.57-.11,1.05-.26,1.46-.44.41-.18.72-.43.94-.74.22-.31.33-.72.33-1.24,0-1.08-.37-1.92-1.11-2.5-.74-.58-1.8-.87-3.18-.87-1.55,0-2.73.34-3.51,1.02-.79.68-1.21,1.75-1.26,3.2h-2.89c.02-.91.2-1.77.52-2.57.32-.8.8-1.49,1.42-2.05.63-.57,1.42-1.02,2.37-1.35.95-.33,2.05-.5,3.31-.5,1.01,0,1.95.11,2.81.31.86.21,1.61.55,2.24,1.02s1.12,1.09,1.48,1.87c.36.78.54,1.73.54,2.87v9.1c0,.79.13,1.38.39,1.76.26.38.81.47,1.65.28h.11v2.18c-.2.07-.42.14-.67.2-.25.06-.57.09-.96.09-1.9,0-3-.95-3.29-2.85ZM271.05,561.99c.74-.33,1.34-.75,1.81-1.24.47-.49.82-1.04,1.05-1.65s.35-1.19.35-1.76v-3.26c-.49.32-1.14.6-1.94.83-.8.23-1.61.42-2.42.57-.74.15-1.44.3-2.11.44-.67.15-1.24.36-1.72.65s-.86.65-1.15,1.09c-.28.44-.43,1.01-.43,1.7,0,.64.12,1.17.35,1.57.23.41.54.72.91.94.37.22.79.38,1.26.46.47.09.95.13,1.44.13.99,0,1.85-.17,2.59-.5Z"/>
    <path class="cls-2" d="M284.41,548.46c.57-.94,1.34-1.74,2.31-2.4.97-.67,2.1-1,3.39-1,.27,0,.49.02.67.05.17.04.36.09.55.17v2.89h-.11c-.22-.07-.43-.12-.61-.15-.19-.02-.43-.04-.72-.04-.74,0-1.44.14-2.11.41-.67.27-1.26.65-1.78,1.15-.52.49-.92,1.1-1.22,1.83-.3.73-.44,1.54-.44,2.42v10.62h-3v-19.13h3v3.18h.07Z"/>
    <path class="cls-2" d="M295.58,545.28v-6.03h3v6.03h3.7v2.44h-3.7v12.43c0,.67.17,1.13.5,1.39.33.26.81.39,1.42.39.3,0,.59-.03.89-.09s.53-.12.7-.17h.11v2.59c-.35.07-.72.14-1.13.19s-.83.07-1.28.07c-1.23,0-2.25-.28-3.03-.83-.79-.55-1.18-1.51-1.18-2.87v-13.1h-2.77v-2.44h2.77Z"/>
    <path class="cls-2" d="M312.82,545.28v-6.03h3v6.03h3.7v2.44h-3.7v12.43c0,.67.17,1.13.5,1.39.33.26.81.39,1.42.39.3,0,.59-.03.89-.09s.53-.12.7-.17h.11v2.59c-.35.07-.72.14-1.13.19s-.83.07-1.28.07c-1.23,0-2.25-.28-3.03-.83-.79-.55-1.18-1.51-1.18-2.87v-13.1h-2.77v-2.44h2.77Z"/>
    <path class="cls-2" d="M325.7,547.8c.69-.91,1.52-1.63,2.5-2.16.97-.53,2.16-.8,3.57-.8,2,0,3.57.52,4.72,1.57,1.15,1.05,1.72,2.57,1.72,4.57v13.43h-3v-13.17c0-1.26-.38-2.22-1.15-2.89s-1.83-1-3.18-1c-.77,0-1.47.13-2.11.39-.64.26-1.2.62-1.66,1.07-.47.46-.83,1.01-1.09,1.67-.26.65-.39,1.38-.39,2.17v11.77h-3v-26.46h3v9.84h.07Z"/>
    <path class="cls-2" d="M346.44,564.13c-1.15-.53-2.12-1.25-2.9-2.17-.79-.91-1.39-1.98-1.81-3.2s-.63-2.52-.63-3.9.22-2.68.65-3.9c.43-1.22,1.05-2.29,1.85-3.2.8-.91,1.76-1.63,2.87-2.16,1.11-.53,2.34-.8,3.7-.8,1.43,0,2.69.27,3.79.8s2.02,1.27,2.76,2.22c.74.95,1.3,2.08,1.68,3.4s.57,2.77.57,4.35h-14.8c.05.96.22,1.86.52,2.7.3.84.7,1.57,1.22,2.18.52.62,1.15,1.1,1.89,1.44.74.35,1.59.52,2.55.52,1.41,0,2.55-.33,3.44-.98.89-.65,1.5-1.63,1.85-2.94h2.92c-.44,2.07-1.38,3.66-2.81,4.77-1.43,1.11-3.23,1.67-5.4,1.67-1.46,0-2.76-.26-3.9-.79ZM347.79,547.63c-.69.31-1.28.74-1.76,1.29s-.88,1.21-1.18,1.96c-.31.75-.51,1.56-.61,2.42h11.51c-.1-1.92-.62-3.43-1.57-4.51-.95-1.08-2.29-1.63-4.01-1.63-.89,0-1.68.15-2.37.46Z"/>
    <path class="cls-2" d="M372.1,564.13c-1.13-.53-2.1-1.25-2.9-2.17-.8-.91-1.42-1.98-1.85-3.2s-.65-2.52-.65-3.9.22-2.68.65-3.9c.43-1.22,1.05-2.29,1.85-3.2.8-.91,1.77-1.63,2.9-2.16,1.13-.53,2.42-.8,3.85-.8s2.71.27,3.85.8c1.13.53,2.1,1.25,2.9,2.16.8.91,1.41,1.98,1.83,3.2.42,1.22.63,2.52.63,3.9s-.21,2.68-.63,3.9-1.03,2.29-1.83,3.2c-.8.91-1.77,1.63-2.9,2.17-1.13.53-2.42.79-3.85.79s-2.71-.26-3.85-.79ZM378.61,561.82c.76-.39,1.41-.93,1.92-1.61.52-.68.91-1.47,1.17-2.39.26-.91.39-1.9.39-2.96s-.13-2.05-.39-2.96c-.26-.91-.65-1.71-1.17-2.41-.52-.69-1.16-1.23-1.92-1.63-.76-.39-1.65-.59-2.66-.59s-1.91.2-2.68.59c-.78.39-1.42.94-1.94,1.63-.52.69-.91,1.49-1.17,2.41-.26.91-.39,1.9-.39,2.96s.13,2.05.39,2.96c.26.91.65,1.71,1.17,2.39s1.17,1.21,1.94,1.61c.78.39,1.67.59,2.68.59s1.9-.2,2.66-.59Z"/>
    <path class="cls-2" d="M391.23,548.46c.57-.94,1.34-1.74,2.31-2.4.97-.67,2.1-1,3.39-1,.27,0,.49.02.67.05.17.04.36.09.55.17v2.89h-.11c-.22-.07-.43-.12-.61-.15-.19-.02-.43-.04-.72-.04-.74,0-1.44.14-2.11.41-.67.27-1.26.65-1.78,1.15-.52.49-.92,1.1-1.22,1.83-.3.73-.44,1.54-.44,2.42v10.62h-3v-19.13h3v3.18h.07Z"/>
    <path class="cls-2" d="M403.97,564.26c-1.05-.47-1.94-1.14-2.66-2.02-.73-.88-1.29-1.94-1.68-3.18-.4-1.25-.59-2.63-.59-4.16s.22-3,.65-4.25c.43-1.26,1.02-2.31,1.78-3.16.75-.85,1.64-1.5,2.66-1.96,1.02-.46,2.13-.68,3.31-.68,1.36,0,2.54.3,3.55.89,1.01.59,1.83,1.34,2.44,2.26h.07v-10.03h3v26.46h-3v-2.33h-.07c-.72.94-1.54,1.65-2.48,2.15-.94.49-2.08.74-3.44.74s-2.49-.23-3.53-.7ZM410.35,561.88c.76-.38,1.39-.91,1.89-1.57.49-.67.86-1.46,1.09-2.37.23-.91.35-1.91.35-3s-.13-2.13-.39-3.05c-.26-.92-.65-1.72-1.17-2.39-.52-.67-1.16-1.18-1.92-1.55s-1.64-.55-2.63-.55c-.91,0-1.71.19-2.39.57s-1.25.91-1.7,1.59c-.46.68-.8,1.48-1.04,2.41-.23.92-.35,1.92-.35,2.98s.12,2.08.35,3c.23.91.58,1.7,1.04,2.37s1.03,1.19,1.72,1.57,1.49.57,2.41.57c1.06,0,1.97-.19,2.74-.57Z"/>
    <path class="cls-2" d="M424.84,564.13c-1.15-.53-2.12-1.25-2.91-2.17-.79-.91-1.39-1.98-1.81-3.2-.42-1.22-.63-2.52-.63-3.9s.22-2.68.65-3.9c.43-1.22,1.05-2.29,1.85-3.2.8-.91,1.76-1.63,2.87-2.16,1.11-.53,2.34-.8,3.7-.8,1.43,0,2.7.27,3.79.8s2.02,1.27,2.76,2.22c.74.95,1.3,2.08,1.68,3.4.38,1.32.57,2.77.57,4.35h-14.8c.05.96.22,1.86.52,2.7s.7,1.57,1.22,2.18c.52.62,1.15,1.1,1.89,1.44.74.35,1.59.52,2.55.52,1.41,0,2.55-.33,3.44-.98.89-.65,1.5-1.63,1.85-2.94h2.92c-.44,2.07-1.38,3.66-2.81,4.77-1.43,1.11-3.23,1.67-5.4,1.67-1.46,0-2.76-.26-3.9-.79ZM426.19,547.63c-.69.31-1.28.74-1.76,1.29-.48.55-.88,1.21-1.18,1.96-.31.75-.51,1.56-.61,2.42h11.51c-.1-1.92-.62-3.43-1.57-4.51-.95-1.08-2.29-1.63-4.01-1.63-.89,0-1.68.15-2.37.46Z"/>
    <path class="cls-2" d="M443.36,548.46c.57-.94,1.34-1.74,2.31-2.4s2.1-1,3.39-1c.27,0,.49.02.67.05.17.04.36.09.55.17v2.89h-.11c-.22-.07-.43-.12-.61-.15-.19-.02-.43-.04-.72-.04-.74,0-1.44.14-2.11.41-.67.27-1.26.65-1.78,1.15-.52.49-.92,1.1-1.22,1.83-.3.73-.44,1.54-.44,2.42v10.62h-3v-19.13h3v3.18h.07Z"/>
    <path class="cls-2" d="M461.86,545.28v2.7h.07c.72-.99,1.57-1.76,2.55-2.31.99-.56,2.18-.83,3.59-.83,1.21,0,2.32.23,3.33.68,1.01.46,1.87,1.11,2.59,1.96.71.85,1.28,1.91,1.68,3.16.41,1.26.61,2.68.61,4.25s-.19,2.92-.57,4.16c-.38,1.25-.93,2.31-1.65,3.18-.72.88-1.59,1.55-2.63,2.02-1.04.47-2.2.7-3.48.7s-2.44-.21-3.4-.63-1.84-1.15-2.63-2.18h-.07v8.4h-3v-25.27h3ZM470.14,561.88c.69-.38,1.26-.91,1.72-1.57s.8-1.46,1.02-2.37c.22-.91.33-1.91.33-3s-.11-2.05-.33-2.98c-.22-.93-.56-1.73-1.02-2.41-.46-.68-1.02-1.21-1.7-1.59s-1.47-.57-2.39-.57c-1.04,0-1.94.2-2.72.59-.78.39-1.41.94-1.91,1.63-.49.69-.86,1.49-1.11,2.41-.25.91-.37,1.89-.37,2.92s.11,2.01.33,2.92c.22.91.57,1.71,1.05,2.39.48.68,1.1,1.21,1.87,1.61s1.7.59,2.81.59c.91,0,1.71-.19,2.4-.57Z"/>
    <path class="cls-2" d="M482.35,548.46c.57-.94,1.34-1.74,2.31-2.4.97-.67,2.1-1,3.39-1,.27,0,.49.02.67.05.17.04.36.09.55.17v2.89h-.11c-.22-.07-.43-.12-.61-.15s-.43-.04-.72-.04c-.74,0-1.44.14-2.11.41-.67.27-1.26.65-1.78,1.15-.52.49-.92,1.1-1.22,1.83-.3.73-.44,1.54-.44,2.42v10.62h-3v-19.13h3v3.18h.07Z"/>
    <path class="cls-2" d="M495.56,564.13c-1.13-.53-2.1-1.25-2.9-2.17-.8-.91-1.42-1.98-1.85-3.2s-.65-2.52-.65-3.9.22-2.68.65-3.9c.43-1.22,1.05-2.29,1.85-3.2.8-.91,1.77-1.63,2.9-2.16s2.42-.8,3.85-.8,2.71.27,3.85.8,2.1,1.25,2.9,2.16c.8.91,1.41,1.98,1.83,3.2.42,1.22.63,2.52.63,3.9s-.21,2.68-.63,3.9c-.42,1.22-1.03,2.29-1.83,3.2-.8.91-1.77,1.63-2.9,2.17s-2.42.79-3.85.79-2.71-.26-3.85-.79ZM502.08,561.82c.76-.39,1.41-.93,1.92-1.61s.91-1.47,1.17-2.39c.26-.91.39-1.9.39-2.96s-.13-2.05-.39-2.96c-.26-.91-.65-1.71-1.17-2.41-.52-.69-1.16-1.23-1.92-1.63-.76-.39-1.65-.59-2.66-.59s-1.91.2-2.68.59-1.42.94-1.94,1.63c-.52.69-.91,1.49-1.17,2.41-.26.91-.39,1.9-.39,2.96s.13,2.05.39,2.96c.26.91.65,1.71,1.17,2.39.52.68,1.17,1.21,1.94,1.61s1.67.59,2.68.59,1.9-.2,2.66-.59Z"/>
    <path class="cls-2" d="M515.95,564.13c-1.13-.53-2.1-1.25-2.9-2.17-.8-.91-1.42-1.98-1.85-3.2s-.65-2.52-.65-3.9.22-2.68.65-3.9c.43-1.22,1.05-2.29,1.85-3.2.8-.91,1.77-1.63,2.9-2.16s2.42-.8,3.85-.8c2.27,0,4.11.6,5.53,1.79,1.42,1.2,2.3,2.82,2.65,4.87h-3.03c-.22-1.31-.77-2.33-1.65-3.07-.88-.74-2.04-1.11-3.5-1.11-1.01,0-1.91.2-2.68.59s-1.42.94-1.94,1.63c-.52.69-.91,1.49-1.17,2.41-.26.91-.39,1.9-.39,2.96s.13,2.05.39,2.96c.26.91.65,1.71,1.17,2.39.52.68,1.17,1.21,1.94,1.61s1.67.59,2.68.59c1.55,0,2.78-.42,3.68-1.26.9-.84,1.41-2,1.54-3.48h2.96c-.2,2.32-1.01,4.11-2.44,5.37s-3.34,1.89-5.73,1.89c-1.43,0-2.71-.26-3.85-.79Z"/>
    <path class="cls-2" d="M535.1,564.13c-1.15-.53-2.12-1.25-2.91-2.17-.79-.91-1.39-1.98-1.81-3.2-.42-1.22-.63-2.52-.63-3.9s.22-2.68.65-3.9c.43-1.22,1.05-2.29,1.85-3.2.8-.91,1.76-1.63,2.87-2.16,1.11-.53,2.34-.8,3.7-.8,1.43,0,2.7.27,3.79.8s2.02,1.27,2.76,2.22c.74.95,1.3,2.08,1.68,3.4.38,1.32.57,2.77.57,4.35h-14.8c.05.96.22,1.86.52,2.7s.7,1.57,1.22,2.18c.52.62,1.15,1.1,1.89,1.44.74.35,1.59.52,2.55.52,1.41,0,2.55-.33,3.44-.98.89-.65,1.5-1.63,1.85-2.94h2.92c-.44,2.07-1.38,3.66-2.81,4.77-1.43,1.11-3.23,1.67-5.4,1.67-1.46,0-2.76-.26-3.9-.79ZM536.45,547.63c-.69.31-1.28.74-1.76,1.29-.48.55-.88,1.21-1.18,1.96-.31.75-.51,1.56-.61,2.42h11.51c-.1-1.92-.62-3.43-1.57-4.51-.95-1.08-2.29-1.63-4.01-1.63-.89,0-1.68.15-2.37.46Z"/>
    <path class="cls-2" d="M551.69,563.21c-1.43-1.17-2.22-2.84-2.37-5.01h3.07c.1.84.31,1.53.63,2.07.32.54.72.97,1.2,1.29.48.32,1.03.55,1.65.68.62.14,1.28.2,2,.2,1.58,0,2.71-.3,3.4-.91s1.04-1.35,1.04-2.24c0-.54-.09-.99-.28-1.35-.19-.36-.48-.66-.89-.91-.41-.25-.93-.46-1.55-.63-.63-.17-1.39-.36-2.28-.55-.94-.2-1.84-.41-2.7-.63-.86-.22-1.62-.54-2.28-.94-.65-.41-1.18-.94-1.57-1.61-.39-.67-.59-1.52-.59-2.55,0-1.6.58-2.88,1.76-3.83s2.88-1.42,5.12-1.42c2.39,0,4.19.53,5.38,1.59,1.2,1.06,1.91,2.53,2.13,4.4h-3.07c-.15-1.26-.58-2.18-1.29-2.76-.72-.58-1.79-.87-3.22-.87s-2.37.27-2.96.8-.89,1.18-.89,1.94c0,.52.11.94.33,1.28.22.33.55.61,1,.83.44.22.99.41,1.63.56.64.15,1.37.31,2.18.48.96.2,1.87.41,2.72.65.85.24,1.6.57,2.26,1,.65.43,1.17.99,1.54,1.68.37.69.56,1.59.56,2.7,0,.96-.19,1.81-.56,2.53-.37.73-.89,1.33-1.55,1.81-.67.48-1.46.84-2.39,1.09-.92.25-1.94.37-3.05.37-2.64,0-4.67-.58-6.11-1.76Z"/>
    <path class="cls-2" d="M569.38,563.21c-1.43-1.17-2.22-2.84-2.37-5.01h3.07c.1.84.31,1.53.63,2.07.32.54.72.97,1.2,1.29.48.32,1.03.55,1.65.68.62.14,1.28.2,2,.2,1.58,0,2.71-.3,3.4-.91.69-.6,1.04-1.35,1.04-2.24,0-.54-.09-.99-.28-1.35-.18-.36-.48-.66-.89-.91-.41-.25-.92-.46-1.55-.63-.63-.17-1.39-.36-2.28-.55-.94-.2-1.84-.41-2.7-.63-.86-.22-1.62-.54-2.28-.94-.65-.41-1.18-.94-1.57-1.61-.39-.67-.59-1.52-.59-2.55,0-1.6.59-2.88,1.76-3.83,1.17-.95,2.88-1.42,5.12-1.42,2.39,0,4.19.53,5.38,1.59,1.2,1.06,1.91,2.53,2.13,4.4h-3.07c-.15-1.26-.58-2.18-1.29-2.76-.72-.58-1.79-.87-3.22-.87s-2.37.27-2.96.8c-.59.53-.89,1.18-.89,1.94,0,.52.11.94.33,1.28.22.33.56.61,1,.83.44.22.99.41,1.63.56.64.15,1.37.31,2.18.48.96.2,1.87.41,2.72.65.85.24,1.6.57,2.26,1,.65.43,1.17.99,1.54,1.68.37.69.55,1.59.55,2.7,0,.96-.18,1.81-.55,2.53-.37.73-.89,1.33-1.55,1.81-.67.48-1.46.84-2.39,1.09-.92.25-1.94.37-3.05.37-2.64,0-4.67-.58-6.1-1.76Z"/>
    <path class="cls-2" d="M589.1,560.75v3.66h-3.59v-3.66h3.59Z"/>
  </g>
</svg>